<svg width="27" height="23" viewBox="0 0 27 23" fill="none" xmlns="http://www.w3.org/2000/svg">
<path d="M1 22C1 19.9959 1.19037 15.686 1.71448 15.1402C3.1974 13.5961 7.69193 13.0875 10.21 12.8685C12.3967 12.6784 14.1381 12.9358 14.9361 13.2029C15.8455 13.5072 16.433 13.9802 16.8725 14.3704C17.2828 14.7347 17.3684 15.1743 17.1853 15.5786C16.7891 16.4531 13.9428 16.4701 11.9225 16.5093C9.62434 16.5538 7.30783 15.0697 6.27418 14.1203C4.82307 12.7874 5.40394 8.57764 6.87063 6.61149C9.08855 3.63831 14.6063 4.69676 20.0168 4.56889C21.6327 4.5307 22.6243 4.72375 23.2749 4.73143C21.7916 3.45771 19.0463 1.76978 18.5026 1.47627C18.2227 1.32583 17.9345 1.17235 17.6579 1" stroke="white" stroke-width="2" stroke-linecap="round"/>
<path d="M24.7113 5.44043C24.7113 5.44851 24.7113 5.45659 24.1406 5.46479C23.57 5.47299 22.4288 5.48107 21.1585 5.80913C19.8883 6.1372 18.5236 6.78502 16.6816 7.88361" stroke="white" stroke-width="2" stroke-linecap="round"/>
</svg>
