<svg width="25" height="22" viewBox="0 0 25 22" fill="none" xmlns="http://www.w3.org/2000/svg">
<path d="M0.75 20.4979C0.75 18.6132 0.931335 14.5603 1.43058 14.0471C2.84316 12.5951 7.12446 12.1168 9.52311 11.9109C11.606 11.7321 13.2648 11.9741 14.025 12.2253C14.8912 12.5114 15.4508 12.9562 15.8695 13.3232C16.2604 13.6657 16.3419 14.0792 16.1674 14.4593C15.79 15.2817 13.0788 15.2977 11.1544 15.3346C8.9652 15.3764 6.75858 13.9808 5.77397 13.088C4.3917 11.8346 4.94502 7.87583 6.34213 6.02691C8.45482 3.231 13.7108 4.22634 18.8647 4.10609C20.4039 4.07018 21.3484 4.25172 21.9681 4.25894C20.5553 3.06117 17.9402 1.47388 17.4223 1.19788C17.1556 1.05641 16.8811 0.912073 16.6176 0.75" stroke="#555552" stroke-width="1.5" stroke-linecap="round"/>
<path d="M23.3362 4.92773C23.3362 4.93533 23.3362 4.94293 22.7926 4.95064C22.2491 4.95835 21.162 4.96595 19.952 5.27445C18.742 5.58296 17.4421 6.19215 15.6875 7.22524" stroke="#555552" stroke-width="1.5" stroke-linecap="round"/>
</svg>
