<svg width="140" height="71" viewBox="0 0 140 71" fill="none" xmlns="http://www.w3.org/2000/svg">
<g filter="url(#filter0_d_4636_27556)">
<rect x="4" y="32" width="68" height="31" fill="white"/>
<rect x="7" y="8" width="129" height="31" fill="white"/>
</g>
<path d="M13.998 4.96094V3.96191H17.0059H20.0029V4.96094V5.95996H17.0059H13.998V4.96094ZM20.0029 17.959V18.958V19.957H17.0059H13.998V18.958V17.959H12.999H12V11.9648V5.95996H12.999H13.998V11.9648V17.959H17.0059H20.0029ZM20.0029 17.959V16.96V15.9609H21.002H22.001V16.96V17.959H21.002H20.0029ZM20.0029 5.95996H21.002H22.001V6.95898V7.95801H21.002H20.0029V6.95898V5.95996ZM26.0078 10.9551V9.95605H29.0156H32.0127V10.9551V11.9648H29.0156H26.0078V14.9619V17.959H29.0156H32.0127V14.9619V11.9648H33.0117H34.0107V14.9619V17.959H33.0117H32.0127V18.958V19.957H29.0156H26.0078V18.958V17.959H25.0088H24.0098V14.9619V11.9648H25.0088H26.0078V10.9551ZM38.0176 4.96094V3.96191H40.0156H42.0244V10.9658V17.959H41.0146H40.0156V11.9648V5.95996H39.0166H38.0176V4.96094ZM42.0244 17.959H44.0225H46.0205V18.958V19.957H44.0225H42.0244V18.958V17.959ZM50.0273 4.96094V3.96191H52.0254H54.0342V10.9658V17.959H53.0244H52.0254V11.9648V5.95996H51.0264H50.0273V4.96094ZM54.0342 17.959H56.0322H58.0303V18.958V19.957H56.0322H54.0342V18.958V17.959ZM62.0371 10.9551V9.95605H65.0449H68.042V10.9551V11.9648H65.0449H62.0371V12.9639V13.9629H65.0449H68.042V12.9639V11.9648H69.041H70.04V13.9629V15.9609H66.0439H62.0371V16.96V17.959H61.0381H60.0391V14.9619V11.9648H61.0381H62.0371V10.9551ZM62.0371 17.959H66.0439H70.04V18.958V19.957H66.0439H62.0371V18.958V17.959ZM74.0469 10.9551V9.95605H78.0537H82.0498V10.9551V11.9648H78.0537H74.0469V10.9551ZM74.0469 17.959H73.0479H72.0488V14.9619V11.9648H73.0479H74.0469V14.9619V17.959ZM74.0469 17.959H78.0537H82.0498V18.958V19.957H78.0537H74.0469V18.958V17.959ZM86.0566 6.95898V3.96191H87.0557H88.0547V6.95898V9.9668H90.0635H92.0615V10.9658V11.9648H90.0635H88.0547V14.9619V17.959H87.0557H86.0566V14.9619V11.9648H85.0576H84.0586V10.9658V9.9668H85.0576H86.0566V6.95898ZM88.0547 17.959H90.0635H92.0615V18.958V19.957H90.0635H88.0547V18.958V17.959ZM98.0664 10.9551V9.95605H101.074H104.071V10.9551V11.9648H101.074H98.0664V12.9639V13.9629H101.074H104.071V12.9639V11.9648H105.07H106.069V13.9629V15.9609H102.073H98.0664V16.96V17.959H97.0674H96.0684V14.9619V11.9648H97.0674H98.0664V10.9551ZM98.0664 17.959H102.073H106.069V18.958V19.957H102.073H98.0664V18.958V17.959ZM116.081 13.9629V11.9648H113.084H110.076V14.9619V17.959H112.085H114.083V16.96V15.9609H115.082H116.081V13.9629ZM116.081 6.95898V3.96191H117.08H118.079V11.9648V19.957H117.08H116.081V18.958V17.959H115.082H114.083V18.958V19.957H112.085H110.076V18.958V17.959H109.077H108.078V14.9619V11.9648H109.077H110.076V10.9658V9.9668H113.084H116.081V6.95898ZM12 37.9648V29.9619H12.999H13.998V33.958V37.9648H14.9971H15.9961V38.9639V39.9629H14.9971H13.998V41.9609V43.959H17.0059H20.0029V40.9619V37.9648H18.0049H15.9961V36.9658V35.9668H18.0049H20.0029V36.9658V37.9648H21.002H22.001V40.9619V43.959H21.002H20.0029V44.958V45.957H16.0068H12V37.9648ZM26.0078 36.9551V35.9561H29.0156H32.0127V36.9551V37.9648H29.0156H26.0078V40.9619V43.959H29.0156H32.0127V40.9619V37.9648H33.0117H34.0107V40.9619V43.959H33.0117H32.0127V44.958V45.957H29.0156H26.0078V44.958V43.959H25.0088H24.0098V40.9619V37.9648H25.0088H26.0078V36.9551ZM38.0176 36.9551V35.9561H41.0254H44.0225V36.9551V37.9648H41.0254H38.0176V40.9619V43.959H41.0254H44.0225V40.9619V37.9648H45.0215H46.0205V40.9619V43.959H45.0215H44.0225V44.958V45.957H41.0254H38.0176V44.958V43.959H37.0186H36.0195V40.9619V37.9648H37.0186H38.0176V36.9551ZM48.0293 37.9648V29.9619H49.0283H50.0273V34.957V39.9629H51.0264H52.0254V38.9639V37.9648H53.0352H54.0342V39.9629V41.9609H52.0361H50.0273V43.959V45.957H49.0283H48.0293V37.9648ZM56.0322 43.959H55.0332H54.0342V42.96V41.9609H55.0332H56.0322V42.96V43.959ZM56.0322 43.959H57.0312H58.0303V44.958V45.957H57.0312H56.0322V44.958V43.959ZM54.0342 37.9648V36.9658V35.9668H55.0332H56.0322V36.9658V37.9648H55.0332H54.0342Z" fill="black"/>
<defs>
<filter id="filter0_d_4636_27556" x="0" y="8" width="140" height="63" filterUnits="userSpaceOnUse" color-interpolation-filters="sRGB">
<feFlood flood-opacity="0" result="BackgroundImageFix"/>
<feColorMatrix in="SourceAlpha" type="matrix" values="0 0 0 0 0 0 0 0 0 0 0 0 0 0 0 0 0 0 127 0" result="hardAlpha"/>
<feOffset dy="4"/>
<feGaussianBlur stdDeviation="2"/>
<feComposite in2="hardAlpha" operator="out"/>
<feColorMatrix type="matrix" values="0 0 0 0 0 0 0 0 0 0 0 0 0 0 0 0 0 0 0.05 0"/>
<feBlend mode="normal" in2="BackgroundImageFix" result="effect1_dropShadow_4636_27556"/>
<feBlend mode="normal" in="SourceGraphic" in2="effect1_dropShadow_4636_27556" result="shape"/>
</filter>
</defs>
</svg>
