<svg width="140" height="72" viewBox="0 0 140 72" fill="none" xmlns="http://www.w3.org/2000/svg">
<g filter="url(#filter0_f_4638_27734)">
<g filter="url(#filter1_d_4638_27734)">
<rect x="4" y="32.0391" width="68" height="31" fill="white"/>
<rect x="7" y="8.03906" width="129" height="31" fill="white"/>
</g>
<path d="M13.998 5V4.00098H17.0059H20.0029V5V5.99902H17.0059H13.998V5ZM20.0029 17.998V18.9971V19.9961H17.0059H13.998V18.9971V17.998H12.999H12V12.0039V5.99902H12.999H13.998V12.0039V17.998H17.0059H20.0029ZM20.0029 17.998V16.999V16H21.002H22.001V16.999V17.998H21.002H20.0029ZM20.0029 5.99902H21.002H22.001V6.99805V7.99707H21.002H20.0029V6.99805V5.99902ZM26.0078 10.9941V9.99512H29.0156H32.0127V10.9941V12.0039H29.0156H26.0078V15.001V17.998H29.0156H32.0127V15.001V12.0039H33.0117H34.0107V15.001V17.998H33.0117H32.0127V18.9971V19.9961H29.0156H26.0078V18.9971V17.998H25.0088H24.0098V15.001V12.0039H25.0088H26.0078V10.9941ZM38.0176 5V4.00098H40.0156H42.0244V11.0049V17.998H41.0146H40.0156V12.0039V5.99902H39.0166H38.0176V5ZM42.0244 17.998H44.0225H46.0205V18.9971V19.9961H44.0225H42.0244V18.9971V17.998ZM50.0273 5V4.00098H52.0254H54.0342V11.0049V17.998H53.0244H52.0254V12.0039V5.99902H51.0264H50.0273V5ZM54.0342 17.998H56.0322H58.0303V18.9971V19.9961H56.0322H54.0342V18.9971V17.998ZM62.0371 10.9941V9.99512H65.0449H68.042V10.9941V12.0039H65.0449H62.0371V13.0029V14.002H65.0449H68.042V13.0029V12.0039H69.041H70.04V14.002V16H66.0439H62.0371V16.999V17.998H61.0381H60.0391V15.001V12.0039H61.0381H62.0371V10.9941ZM62.0371 17.998H66.0439H70.04V18.9971V19.9961H66.0439H62.0371V18.9971V17.998ZM74.0469 10.9941V9.99512H78.0537H82.0498V10.9941V12.0039H78.0537H74.0469V10.9941ZM74.0469 17.998H73.0479H72.0488V15.001V12.0039H73.0479H74.0469V15.001V17.998ZM74.0469 17.998H78.0537H82.0498V18.9971V19.9961H78.0537H74.0469V18.9971V17.998ZM86.0566 6.99805V4.00098H87.0557H88.0547V6.99805V10.0059H90.0635H92.0615V11.0049V12.0039H90.0635H88.0547V15.001V17.998H87.0557H86.0566V15.001V12.0039H85.0576H84.0586V11.0049V10.0059H85.0576H86.0566V6.99805ZM88.0547 17.998H90.0635H92.0615V18.9971V19.9961H90.0635H88.0547V18.9971V17.998ZM98.0664 10.9941V9.99512H101.074H104.071V10.9941V12.0039H101.074H98.0664V13.0029V14.002H101.074H104.071V13.0029V12.0039H105.07H106.069V14.002V16H102.073H98.0664V16.999V17.998H97.0674H96.0684V15.001V12.0039H97.0674H98.0664V10.9941ZM98.0664 17.998H102.073H106.069V18.9971V19.9961H102.073H98.0664V18.9971V17.998ZM116.081 14.002V12.0039H113.084H110.076V15.001V17.998H112.085H114.083V16.999V16H115.082H116.081V14.002ZM116.081 6.99805V4.00098H117.08H118.079V12.0039V19.9961H117.08H116.081V18.9971V17.998H115.082H114.083V18.9971V19.9961H112.085H110.076V18.9971V17.998H109.077H108.078V15.001V12.0039H109.077H110.076V11.0049V10.0059H113.084H116.081V6.99805ZM12 38.0039V30.001H12.999H13.998V33.9971V38.0039H14.9971H15.9961V39.0029V40.002H14.9971H13.998V42V43.998H17.0059H20.0029V41.001V38.0039H18.0049H15.9961V37.0049V36.0059H18.0049H20.0029V37.0049V38.0039H21.002H22.001V41.001V43.998H21.002H20.0029V44.9971V45.9961H16.0068H12V38.0039ZM26.0078 36.9941V35.9951H29.0156H32.0127V36.9941V38.0039H29.0156H26.0078V41.001V43.998H29.0156H32.0127V41.001V38.0039H33.0117H34.0107V41.001V43.998H33.0117H32.0127V44.9971V45.9961H29.0156H26.0078V44.9971V43.998H25.0088H24.0098V41.001V38.0039H25.0088H26.0078V36.9941ZM38.0176 36.9941V35.9951H41.0254H44.0225V36.9941V38.0039H41.0254H38.0176V41.001V43.998H41.0254H44.0225V41.001V38.0039H45.0215H46.0205V41.001V43.998H45.0215H44.0225V44.9971V45.9961H41.0254H38.0176V44.9971V43.998H37.0186H36.0195V41.001V38.0039H37.0186H38.0176V36.9941ZM48.0293 38.0039V30.001H49.0283H50.0273V34.9961V40.002H51.0264H52.0254V39.0029V38.0039H53.0352H54.0342V40.002V42H52.0361H50.0273V43.998V45.9961H49.0283H48.0293V38.0039ZM56.0322 43.998H55.0332H54.0342V42.999V42H55.0332H56.0322V42.999V43.998ZM56.0322 43.998H57.0312H58.0303V44.9971V45.9961H57.0312H56.0322V44.9971V43.998ZM54.0342 38.0039V37.0049V36.0059H55.0332H56.0322V37.0049V38.0039H55.0332H54.0342Z" fill="black"/>
</g>
<defs>
<filter id="filter0_f_4638_27734" x="0" y="0" width="140" height="67.0391" filterUnits="userSpaceOnUse" color-interpolation-filters="sRGB">
<feFlood flood-opacity="0" result="BackgroundImageFix"/>
<feBlend mode="normal" in="SourceGraphic" in2="BackgroundImageFix" result="shape"/>
<feGaussianBlur stdDeviation="2" result="effect1_foregroundBlur_4638_27734"/>
</filter>
<filter id="filter1_d_4638_27734" x="0" y="8.03906" width="140" height="63" filterUnits="userSpaceOnUse" color-interpolation-filters="sRGB">
<feFlood flood-opacity="0" result="BackgroundImageFix"/>
<feColorMatrix in="SourceAlpha" type="matrix" values="0 0 0 0 0 0 0 0 0 0 0 0 0 0 0 0 0 0 127 0" result="hardAlpha"/>
<feOffset dy="4"/>
<feGaussianBlur stdDeviation="2"/>
<feComposite in2="hardAlpha" operator="out"/>
<feColorMatrix type="matrix" values="0 0 0 0 0 0 0 0 0 0 0 0 0 0 0 0 0 0 0.05 0"/>
<feBlend mode="normal" in2="BackgroundImageFix" result="effect1_dropShadow_4638_27734"/>
<feBlend mode="normal" in="SourceGraphic" in2="effect1_dropShadow_4638_27734" result="shape"/>
</filter>
</defs>
</svg>
