<svg width="173" height="63" viewBox="0 0 173 63" fill="none" xmlns="http://www.w3.org/2000/svg">
<g filter="url(#filter0_d_4675_28904)">
<rect x="4" y="12" width="126" height="23" fill="white"/>
<rect x="73" y="30" width="80" height="25" fill="white"/>
</g>
<path d="M13.998 4.96094V3.96191H17.0059H20.0029V4.96094V5.95996H17.0059H13.998V4.96094ZM20.0029 17.959V18.958V19.957H17.0059H13.998V18.958V17.959H12.999H12V11.9648V5.95996H12.999H13.998V11.9648V17.959H17.0059H20.0029ZM20.0029 17.959V14.9619V11.9648H18.0049H15.9961V10.9658V9.9668H19.0039H22.001V13.9629V17.959H21.002H20.0029ZM20.0029 5.95996H21.002H22.001V6.95898V7.95801H21.002H20.0029V6.95898V5.95996ZM26.0078 10.9551V9.95605H29.0156H32.0127V10.9551V11.9648H29.0156H26.0078V12.9639V13.9629H29.0156H32.0127V12.9639V11.9648H33.0117H34.0107V13.9629V15.9609H30.0146H26.0078V16.96V17.959H25.0088H24.0098V14.9619V11.9648H25.0088H26.0078V10.9551ZM26.0078 17.959H30.0146H34.0107V18.958V19.957H30.0146H26.0078V18.958V17.959ZM36.0195 14.9619V9.95605H40.0264H44.0225V10.9551V11.9648H41.0254H38.0176V15.9609V19.957H37.0186H36.0195V14.9619ZM44.0225 11.9648H45.0215H46.0205V15.9609V19.957H45.0215H44.0225V15.9609V11.9648ZM50.0273 10.9551V9.95605H53.0352H56.0322V10.9551V11.9648H53.0352H50.0273V12.9639V13.9629H53.0352H56.0322V12.9639V11.9648H57.0312H58.0303V13.9629V15.9609H54.0342H50.0273V16.96V17.959H49.0283H48.0293V14.9619V11.9648H49.0283H50.0273V10.9551ZM50.0273 17.959H54.0342H58.0303V18.958V19.957H54.0342H50.0273V18.958V17.959ZM60.0391 14.9619V9.95605H61.0381H62.0371V10.9551V11.9648H63.0361H64.0352V12.9639V13.9629H63.0361H62.0371V16.96V19.957H61.0381H60.0391V14.9619ZM68.042 11.9648H66.0439H64.0352V10.9551V9.95605H66.0439H68.042V10.9551V11.9648ZM68.042 11.9648H69.041H70.04V12.9639V13.9629H69.041H68.042V12.9639V11.9648ZM80.0518 16.96V15.9609H77.0547H74.0469V16.96V17.959H77.0547H80.0518V16.96ZM74.0469 10.9551V9.95605H77.0547H80.0518V10.9551V11.9648H77.0547H74.0469V10.9551ZM74.0469 15.9609V14.9619V13.9629H77.0547H80.0518V12.9639V11.9648H81.0508H82.0498V15.9609V19.957H78.0537H74.0469V18.958V17.959H73.0479H72.0488V16.96V15.9609H73.0479H74.0469ZM86.0566 6.95898V3.96191H87.0557H88.0547V6.95898V9.9668H90.0635H92.0615V10.9658V11.9648H90.0635H88.0547V14.9619V17.959H87.0557H86.0566V14.9619V11.9648H85.0576H84.0586V10.9658V9.9668H85.0576H86.0566V6.95898ZM88.0547 17.959H90.0635H92.0615V18.958V19.957H90.0635H88.0547V18.958V17.959ZM100.064 6.95898V5.95996H101.063H102.073V6.95898V7.95801H101.063H100.064V6.95898ZM98.0664 10.9658V9.95605H100.064H102.073V13.9629V17.959H103.072H104.071V18.958V19.957H102.073H100.064V15.9609V11.9648H99.0654H98.0664V10.9658ZM108.078 11.9648V9.95605H109.077H110.076V11.9648V13.9629H109.077H108.078V11.9648ZM116.081 13.9629V15.9609V17.959H115.082H114.083V18.958V19.957H113.084H112.074V18.958V17.959H111.075H110.076V15.9609V13.9629H111.075H112.074V15.9609V17.959H113.084H114.083V15.9609V13.9629H115.082H116.081ZM116.081 13.9629V11.9648V9.95605H117.08H118.079V11.9648V13.9629H117.08H116.081ZM122.086 10.9551V9.95605H125.094H128.091V10.9551V11.9648H125.094H122.086V12.9639V13.9629H125.094H128.091V12.9639V11.9648H129.09H130.089V13.9629V15.9609H126.093H122.086V16.96V17.959H121.087H120.088V14.9619V11.9648H121.087H122.086V10.9551ZM122.086 17.959H126.093H130.089V18.958V19.957H126.093H122.086V18.958V17.959ZM86.0566 30.9609V29.9619H89.0645H92.0615V30.9609V31.96H89.0645H86.0566V30.9609ZM86.0566 43.959H89.0645H92.0615V40.9619V37.9648H89.0645H86.0566V36.9658V35.9668H85.0576H84.0586V33.958V31.96H85.0576H86.0566V33.958V35.9668H89.0645H92.0615V36.9658V37.9648H93.0605H94.0596V40.9619V43.959H93.0605H92.0615V44.958V45.957H89.0645H86.0566V44.958V43.959ZM86.0566 43.959H85.0576H84.0586V42.96V41.9609H85.0576H86.0566V42.96V43.959ZM92.0615 31.96H93.0605H94.0596V32.959V33.958H93.0605H92.0615V32.959V31.96ZM96.0684 39.9629V35.9561H97.0674H98.0664V39.9629V43.959H97.0674H96.0684V39.9629ZM104.071 47.9658V45.9678V43.959H103.072H102.073V44.9688V45.9678H100.075H98.0664V44.9688V43.959H100.075H102.073V42.96V41.9609H103.072H104.071V38.9639V35.9561H105.07H106.069V41.9609V47.9658H105.07H104.071ZM104.071 47.9658V48.9648V49.9639H101.074H98.0664V48.9648V47.9658H101.074H104.071ZM110.076 36.9551V35.9561H113.084H116.081V36.9551V37.9648H113.084H110.076V36.9551ZM116.081 43.959V42.96V41.9609H113.084H110.076V40.9619V39.9629H109.077H108.078V38.9639V37.9648H109.077H110.076V38.9639V39.9629H113.084H116.081V40.9619V41.9609H117.08H118.079V42.96V43.959H117.08H116.081ZM116.081 43.959V44.958V45.957H112.085H108.078V44.958V43.959H112.085H116.081ZM122.086 32.959V29.9619H123.085H124.084V32.959V35.9668H126.093H128.091V36.9658V37.9648H126.093H124.084V40.9619V43.959H123.085H122.086V40.9619V37.9648H121.087H120.088V36.9658V35.9668H121.087H122.086V32.959ZM124.084 43.959H126.093H128.091V44.958V45.957H126.093H124.084V44.958V43.959ZM134.096 36.9551V35.9561H137.104H140.101V36.9551V37.9648H137.104H134.096V38.9639V39.9629H137.104H140.101V38.9639V37.9648H141.1H142.099V39.9629V41.9609H138.103H134.096V42.96V43.959H133.097H132.098V40.9619V37.9648H133.097H134.096V36.9551ZM134.096 43.959H138.103H142.099V44.958V45.957H138.103H134.096V44.958V43.959ZM144.107 40.9619V35.9561H148.114H152.11V36.9551V37.9648H151.111H150.112V41.9609V45.957H149.113H148.104V41.9609V37.9648H147.104H146.105V41.9609V45.957H145.106H144.107V40.9619ZM152.11 37.9648H153.109H154.108V41.9609V45.957H153.109H152.11V41.9609V37.9648Z" fill="#555552"/>
<defs>
<filter id="filter0_d_4675_28904" x="0" y="12" width="157" height="51" filterUnits="userSpaceOnUse" color-interpolation-filters="sRGB">
<feFlood flood-opacity="0" result="BackgroundImageFix"/>
<feColorMatrix in="SourceAlpha" type="matrix" values="0 0 0 0 0 0 0 0 0 0 0 0 0 0 0 0 0 0 127 0" result="hardAlpha"/>
<feOffset dy="4"/>
<feGaussianBlur stdDeviation="2"/>
<feComposite in2="hardAlpha" operator="out"/>
<feColorMatrix type="matrix" values="0 0 0 0 0 0 0 0 0 0 0 0 0 0 0 0 0 0 0.05 0"/>
<feBlend mode="normal" in2="BackgroundImageFix" result="effect1_dropShadow_4675_28904"/>
<feBlend mode="normal" in="SourceGraphic" in2="effect1_dropShadow_4675_28904" result="shape"/>
</filter>
</defs>
</svg>
