<svg width="173" height="64" viewBox="0 0 173 64" fill="none" xmlns="http://www.w3.org/2000/svg">
<g filter="url(#filter0_f_4638_27745)">
<g filter="url(#filter1_d_4638_27745)">
<rect x="4" y="12.0391" width="126" height="23" fill="white"/>
<rect x="73" y="30.0391" width="80" height="25" fill="white"/>
</g>
<path d="M13.998 5V4.00098H17.0059H20.0029V5V5.99902H17.0059H13.998V5ZM20.0029 17.998V18.9971V19.9961H17.0059H13.998V18.9971V17.998H12.999H12V12.0039V5.99902H12.999H13.998V12.0039V17.998H17.0059H20.0029ZM20.0029 17.998V15.001V12.0039H18.0049H15.9961V11.0049V10.0059H19.0039H22.001V14.002V17.998H21.002H20.0029ZM20.0029 5.99902H21.002H22.001V6.99805V7.99707H21.002H20.0029V6.99805V5.99902ZM26.0078 10.9941V9.99512H29.0156H32.0127V10.9941V12.0039H29.0156H26.0078V13.0029V14.002H29.0156H32.0127V13.0029V12.0039H33.0117H34.0107V14.002V16H30.0146H26.0078V16.999V17.998H25.0088H24.0098V15.001V12.0039H25.0088H26.0078V10.9941ZM26.0078 17.998H30.0146H34.0107V18.9971V19.9961H30.0146H26.0078V18.9971V17.998ZM36.0195 15.001V9.99512H40.0264H44.0225V10.9941V12.0039H41.0254H38.0176V16V19.9961H37.0186H36.0195V15.001ZM44.0225 12.0039H45.0215H46.0205V16V19.9961H45.0215H44.0225V16V12.0039ZM50.0273 10.9941V9.99512H53.0352H56.0322V10.9941V12.0039H53.0352H50.0273V13.0029V14.002H53.0352H56.0322V13.0029V12.0039H57.0312H58.0303V14.002V16H54.0342H50.0273V16.999V17.998H49.0283H48.0293V15.001V12.0039H49.0283H50.0273V10.9941ZM50.0273 17.998H54.0342H58.0303V18.9971V19.9961H54.0342H50.0273V18.9971V17.998ZM60.0391 15.001V9.99512H61.0381H62.0371V10.9941V12.0039H63.0361H64.0352V13.0029V14.002H63.0361H62.0371V16.999V19.9961H61.0381H60.0391V15.001ZM68.042 12.0039H66.0439H64.0352V10.9941V9.99512H66.0439H68.042V10.9941V12.0039ZM68.042 12.0039H69.041H70.04V13.0029V14.002H69.041H68.042V13.0029V12.0039ZM80.0518 16.999V16H77.0547H74.0469V16.999V17.998H77.0547H80.0518V16.999ZM74.0469 10.9941V9.99512H77.0547H80.0518V10.9941V12.0039H77.0547H74.0469V10.9941ZM74.0469 16V15.001V14.002H77.0547H80.0518V13.0029V12.0039H81.0508H82.0498V16V19.9961H78.0537H74.0469V18.9971V17.998H73.0479H72.0488V16.999V16H73.0479H74.0469ZM86.0566 6.99805V4.00098H87.0557H88.0547V6.99805V10.0059H90.0635H92.0615V11.0049V12.0039H90.0635H88.0547V15.001V17.998H87.0557H86.0566V15.001V12.0039H85.0576H84.0586V11.0049V10.0059H85.0576H86.0566V6.99805ZM88.0547 17.998H90.0635H92.0615V18.9971V19.9961H90.0635H88.0547V18.9971V17.998ZM100.064 6.99805V5.99902H101.063H102.073V6.99805V7.99707H101.063H100.064V6.99805ZM98.0664 11.0049V9.99512H100.064H102.073V14.002V17.998H103.072H104.071V18.9971V19.9961H102.073H100.064V16V12.0039H99.0654H98.0664V11.0049ZM108.078 12.0039V9.99512H109.077H110.076V12.0039V14.002H109.077H108.078V12.0039ZM116.081 14.002V16V17.998H115.082H114.083V18.9971V19.9961H113.084H112.074V18.9971V17.998H111.075H110.076V16V14.002H111.075H112.074V16V17.998H113.084H114.083V16V14.002H115.082H116.081ZM116.081 14.002V12.0039V9.99512H117.08H118.079V12.0039V14.002H117.08H116.081ZM122.086 10.9941V9.99512H125.094H128.091V10.9941V12.0039H125.094H122.086V13.0029V14.002H125.094H128.091V13.0029V12.0039H129.09H130.089V14.002V16H126.093H122.086V16.999V17.998H121.087H120.088V15.001V12.0039H121.087H122.086V10.9941ZM122.086 17.998H126.093H130.089V18.9971V19.9961H126.093H122.086V18.9971V17.998ZM86.0566 31V30.001H89.0645H92.0615V31V31.999H89.0645H86.0566V31ZM86.0566 43.998H89.0645H92.0615V41.001V38.0039H89.0645H86.0566V37.0049V36.0059H85.0576H84.0586V33.9971V31.999H85.0576H86.0566V33.9971V36.0059H89.0645H92.0615V37.0049V38.0039H93.0605H94.0596V41.001V43.998H93.0605H92.0615V44.9971V45.9961H89.0645H86.0566V44.9971V43.998ZM86.0566 43.998H85.0576H84.0586V42.999V42H85.0576H86.0566V42.999V43.998ZM92.0615 31.999H93.0605H94.0596V32.998V33.9971H93.0605H92.0615V32.998V31.999ZM96.0684 40.002V35.9951H97.0674H98.0664V40.002V43.998H97.0674H96.0684V40.002ZM104.071 48.0049V46.0068V43.998H103.072H102.073V45.0078V46.0068H100.075H98.0664V45.0078V43.998H100.075H102.073V42.999V42H103.072H104.071V39.0029V35.9951H105.07H106.069V42V48.0049H105.07H104.071ZM104.071 48.0049V49.0039V50.0029H101.074H98.0664V49.0039V48.0049H101.074H104.071ZM110.076 36.9941V35.9951H113.084H116.081V36.9941V38.0039H113.084H110.076V36.9941ZM116.081 43.998V42.999V42H113.084H110.076V41.001V40.002H109.077H108.078V39.0029V38.0039H109.077H110.076V39.0029V40.002H113.084H116.081V41.001V42H117.08H118.079V42.999V43.998H117.08H116.081ZM116.081 43.998V44.9971V45.9961H112.085H108.078V44.9971V43.998H112.085H116.081ZM122.086 32.998V30.001H123.085H124.084V32.998V36.0059H126.093H128.091V37.0049V38.0039H126.093H124.084V41.001V43.998H123.085H122.086V41.001V38.0039H121.087H120.088V37.0049V36.0059H121.087H122.086V32.998ZM124.084 43.998H126.093H128.091V44.9971V45.9961H126.093H124.084V44.9971V43.998ZM134.096 36.9941V35.9951H137.104H140.101V36.9941V38.0039H137.104H134.096V39.0029V40.002H137.104H140.101V39.0029V38.0039H141.1H142.099V40.002V42H138.103H134.096V42.999V43.998H133.097H132.098V41.001V38.0039H133.097H134.096V36.9941ZM134.096 43.998H138.103H142.099V44.9971V45.9961H138.103H134.096V44.9971V43.998ZM144.107 41.001V35.9951H148.114H152.11V36.9941V38.0039H151.111H150.112V42V45.9961H149.113H148.104V42V38.0039H147.104H146.105V42V45.9961H145.106H144.107V41.001ZM152.11 38.0039H153.109H154.108V42V45.9961H153.109H152.11V42V38.0039Z" fill="black"/>
</g>
<defs>
<filter id="filter0_f_4638_27745" x="0" y="0" width="158.109" height="59.0391" filterUnits="userSpaceOnUse" color-interpolation-filters="sRGB">
<feFlood flood-opacity="0" result="BackgroundImageFix"/>
<feBlend mode="normal" in="SourceGraphic" in2="BackgroundImageFix" result="shape"/>
<feGaussianBlur stdDeviation="2" result="effect1_foregroundBlur_4638_27745"/>
</filter>
<filter id="filter1_d_4638_27745" x="0" y="12.0391" width="157" height="51" filterUnits="userSpaceOnUse" color-interpolation-filters="sRGB">
<feFlood flood-opacity="0" result="BackgroundImageFix"/>
<feColorMatrix in="SourceAlpha" type="matrix" values="0 0 0 0 0 0 0 0 0 0 0 0 0 0 0 0 0 0 127 0" result="hardAlpha"/>
<feOffset dy="4"/>
<feGaussianBlur stdDeviation="2"/>
<feComposite in2="hardAlpha" operator="out"/>
<feColorMatrix type="matrix" values="0 0 0 0 0 0 0 0 0 0 0 0 0 0 0 0 0 0 0.05 0"/>
<feBlend mode="normal" in2="BackgroundImageFix" result="effect1_dropShadow_4638_27745"/>
<feBlend mode="normal" in="SourceGraphic" in2="effect1_dropShadow_4638_27745" result="shape"/>
</filter>
</defs>
</svg>
