<svg width="84" height="30" viewBox="0 0 84 30" fill="none" xmlns="http://www.w3.org/2000/svg">
<path d="M0 14.5508V0H1.81641H3.63281V5.44922V10.918H9.10156H14.5508V5.44922V0H16.3672H18.1836V14.5508V29.082H16.3672H14.5508V21.8164V14.5508H9.10156H3.63281V21.8164V29.082H1.81641H0V14.5508ZM25.4688 1.81641V0H30.9375H36.3867V1.81641V3.63281H30.9375H25.4688V14.5508V25.4492H30.9375H36.3867V14.5508V3.63281H38.2031H40.0195V14.5508V25.4492H38.2031H36.3867V27.2656V29.082H30.9375H25.4688V27.2656V25.4492H23.6523H21.8359V14.5508V3.63281H23.6523H25.4688V1.81641ZM43.6719 14.5508V0H45.4883H47.3047V1.81641V3.63281H49.1211H50.9375V5.44922V7.26562H49.1211H47.3047V18.1836V29.082H45.4883H43.6719V14.5508ZM54.5898 7.26562V10.918V14.5508H52.7734H50.9375V10.918V7.26562H52.7734H54.5898ZM54.5898 7.26562V5.44922V3.63281H56.4062H58.2227V1.81641V0H60.0391H61.8555V14.5508V29.082H60.0391H58.2227V18.1836V7.26562H56.4062H54.5898ZM65.5078 14.5508V0H74.5898H83.6914V1.81641V3.63281H76.4258H69.1406V7.26562V10.918H74.6094H80.0586V12.7344V14.5508H74.6094H69.1406V20V25.4492H76.4258H83.6914V27.2656V29.082H74.5898H65.5078V14.5508Z" fill="#383A34"/>
</svg>
