<svg width="254" height="145" viewBox="0 0 254 145" fill="none" xmlns="http://www.w3.org/2000/svg">
<path d="M160.919 83.0123H165.988L167.493 83.0331C170.054 83.1839 171.491 84.8892 171.507 87.1664L171.533 88.8613V111.139H176.596V78.4111H160.914V83.0123H160.919Z" fill="#D5D5D5"/>
<path d="M214.097 88.6387H209.324V137.731H214.097V88.6387Z" fill="#D5D5D5"/>
<path d="M191.638 88.6387H187.034H185.009H183.371V127.456H182.734V137.731H183.371H184.855H187.034V100.876L193.146 137.731H193.704H199.78V115.453H196.082L191.638 88.6387Z" fill="#D5D5D5"/>
<path d="M154.38 75.0016H159.071V67.9862H160.916V25.9194H159.071V25.9092H156.827H154.38H152.069L135.688 74.9965H140.445L154.38 33.2467V75.0016Z" fill="#D5D5D5"/>
<path d="M173.187 25.9092V75.0016H167.051V68.0154H168.669V60.9832H167.051V25.9092H173.187Z" fill="#D5D5D5"/>
<path d="M120.685 0L115.23 0L115.23 49.0924H120.685L120.685 0Z" fill="#D5D5D5"/>
<path d="M100.738 32.73H102.68L105.534 49.0924H111.142L108.288 32.73H106.346L103.487 16.3624H101.545L98.6909 0L95.7974 0L88.591 0L84.3828 0L81.1406 0L81.1406 49.0924H88.591L88.591 19.222L98.3772 19.222L100.738 32.73Z" fill="#D5D5D5"/>
<path d="M56.599 81.8198H61.6627V77.1556L61.6888 75.4792C61.7097 73.2268 63.1415 71.5401 65.7021 71.391L67.2071 71.3704H72.276V66.8193H56.5938V81.8198H56.599Z" fill="#D5D5D5"/>
<path d="M108.824 95.4621H97.772C96.4969 95.4621 95.457 96.4703 95.457 97.7179L95.457 142.294C95.457 143.536 96.4917 144.549 97.772 144.549H98.211C99.486 144.549 100.526 143.541 100.526 142.294V105.697L100.552 104.037C100.573 101.807 102.005 100.137 104.565 99.989L106.07 99.9686H108.824C110.105 99.9686 111.139 98.9604 111.139 97.7128C111.139 96.4653 110.105 95.457 108.824 95.457V95.4621Z" fill="#D5D5D5"/>
<path d="M211.371 25.9092L197.734 25.9092L197.878 75.0016H202.834L202.691 36.2008L202.716 34.7415C202.737 32.4989 203.959 30.5276 206.67 30.4508C206.67 30.4508 209.53 30.4508 211.371 30.4457V25.9092Z" fill="#D5D5D5"/>
<path d="M230.786 115.271C227.044 115.041 225.545 112.86 225.442 109.518L225.401 108.023V94.5566H220.441V119.827H235.802V115.297H231.948L230.786 115.271Z" fill="#D5D5D5"/>
<path d="M229.362 80.977C226.854 80.8286 225.446 79.1497 225.431 76.9078L225.405 75.2392V70.5967H220.445V85.5274H235.806V80.9975H230.841L229.367 80.977H229.362Z" fill="#D5D5D5"/>
<path d="M235.802 87.6973H220.227V92.2272H235.802V87.6973Z" fill="#D5D5D5"/>
<path d="M125.792 114.897C121.972 114.673 120.44 112.555 120.336 109.308L120.294 107.856V94.7754H115.23V119.322H130.913V114.921H126.978L125.792 114.897Z" fill="#D5D5D5"/>
<path d="M124.334 80.6573C121.773 80.5082 120.336 78.8215 120.32 76.5691L120.294 74.8927V70.2285H115.23V85.229H130.913V80.6779H125.844L124.339 80.6573H124.334Z" fill="#D5D5D5"/>
<path d="M130.913 87.957H115.23V92.0481H130.913V87.957Z" fill="#D5D5D5"/>
<path d="M251.474 72.4008C250.043 70.963 248.267 70.2285 246.194 70.2285H246.09C244.018 70.2285 242.242 70.9578 240.811 72.4008C239.375 73.849 238.645 75.6695 238.645 77.816V79.5072H243.421V77.816C243.421 76.9264 243.673 76.2126 244.191 75.6385C244.699 75.0748 245.321 74.8006 246.09 74.8006H246.194C246.964 74.8006 247.586 75.0748 248.094 75.6385C248.612 76.2126 248.864 76.9212 248.864 77.816V77.9246C248.864 79.0055 248.494 79.8383 247.739 80.4796C246.426 81.5916 243.752 81.4106 243.752 81.4106L243.771 83.7432V110.457H248.523V86.4223L248.533 85.3931C250.038 84.8397 251.252 83.9449 252.155 82.7294C253.142 81.4002 253.645 79.7814 253.645 77.9194V77.8108C253.645 75.6644 252.915 73.8438 251.479 72.3956L251.474 72.4008Z" fill="#D5D5D5"/>
<path d="M246.204 112.503H246.087C244.966 112.503 244.001 112.929 243.224 113.769C242.448 114.61 242.055 115.65 242.055 116.869V117.001C242.055 118.214 242.448 119.26 243.224 120.101C244.001 120.941 244.962 121.367 246.087 121.367H246.204C247.33 121.367 248.291 120.941 249.067 120.101C249.844 119.26 250.237 118.22 250.237 117.006V116.874C250.237 115.661 249.844 114.615 249.067 113.774C248.291 112.934 247.33 112.508 246.204 112.508V112.503Z" fill="#D5D5D5"/>
<path d="M54.5473 66.8193H39.5469V81.8198H44.3889V75.267L49.8101 81.8198H54.5473V80.0173L47.2892 71.3744H54.5473V66.8193Z" fill="#D5D5D5"/>
<path d="M38.8633 88.9757H52.606C63.0094 89.2206 67.0432 95.8873 66.5956 106.357V115.912H71.5915V84.5479H38.8684V88.9807L38.8633 88.9757Z" fill="#D5D5D5"/>
<path d="M21.6301 99.4025L6.70481 72.9561H0L0 122.673H4.94255L4.94255 93.3408L21.1831 122.72L21.1934 122.73H21.2037L25.7506 122.72H25.9099L25.9099 99.4025H25.7506H21.6301Z" fill="#D5D5D5"/>
<path d="M25.9102 72.9561L25.9102 97.1992H28.0036L28.0036 122.048H32.7139V122.033H32.7285V117.699L32.7139 72.9611L25.9102 72.9561Z" fill="#D5D5D5"/>
<path d="M94.0924 97.2542C94.0924 98.5178 93.0707 99.5483 91.8064 99.5483H78.4102V91.3662H82.6571V94.9446L83.6015 94.9549H91.8064C93.0707 94.9549 94.0924 95.9855 94.0924 97.249V97.2542Z" fill="#D5D5D5"/>
<path d="M83.5239 112.503C86.3482 112.503 88.6377 110.061 88.6377 107.048C88.6377 104.036 86.3482 101.594 83.5239 101.594C80.6997 101.594 78.4102 104.036 78.4102 107.048C78.4102 110.061 80.6997 112.503 83.5239 112.503Z" fill="#D5D5D5"/>
<path d="M74.32 38.8652H62.0469V41.5926H74.32V38.8652Z" fill="#D5D5D5"/>
<path d="M139.097 38.8652H126.824V41.5926H139.097V38.8652Z" fill="#D5D5D5"/>
<path d="M162.79 122.913C149.534 122.326 149.124 113.196 148.924 108.085C148.883 107.099 148.847 105.991 148.847 105.22V95.457H143.867V127.503H176.595V122.974H165.544L162.79 122.908V122.913Z" fill="#D5D5D5"/>
<path d="M158.868 78.4111H143.867V92.7297H148.711V86.4773L154.133 92.7297H158.868V91.009L151.609 82.7571H158.868V78.4111Z" fill="#D5D5D5"/>
<path d="M184.751 40.9267L190.243 75.0016H195.004V64.7253H193.292L188.333 34.9156C187.968 32.7293 188.708 30.461 191.693 30.4098L194.748 30.4098V25.9092L180.004 25.9092V75.0016H184.751V40.9267Z" fill="#D5D5D5"/>
<path d="M220.933 23.8444V22.7183H230.812V13.249L215.938 13.249V17.6407H226.021V18.6439H216.142V28.2361H231.017V23.8444H220.933Z" fill="#D5D5D5"/>
<path d="M223.07 49.0228L226.386 29.9307H221.462L216.277 59.8177V62.1057H231.014V57.6014H227.84C227.84 57.6014 226.909 57.5809 226.683 57.5605C222.44 57.1254 222.215 54.044 222.727 51.0395L223.07 49.0279V49.0228Z" fill="#D5D5D5"/>
<path d="M55.91 13.6367L49.7734 13.6367L49.7734 63.4109H55.91L55.91 13.6367Z" fill="#D5D5D5"/>
<path d="M45.0032 52.9972V63.4109L39.0934 63.4109L26.9766 17.0528L26.9766 38.5264H25.9656L25.9656 63.4109H20.457L20.457 13.6367L27.873 13.6367L39.9898 59.9948V52.9972L45.0032 52.9972Z" fill="#D5D5D5"/>
</svg>
