<svg width="797" height="454" viewBox="0 0 797 454" fill="none" xmlns="http://www.w3.org/2000/svg">
<path d="M505.415 260.725H521.335L526.062 260.79C534.104 261.264 538.618 266.62 538.667 273.772L538.749 279.095V349.066H554.653V246.273H505.398V260.725H505.415Z" fill="white"/>
<path d="M672.436 278.397H657.445V432.586H672.436V278.397Z" fill="white"/>
<path d="M601.89 278.397H587.431H581.069H575.927V400.314H573.926V432.586H575.927H580.585H587.431V316.833L606.627 432.586H608.378H627.464V362.615H615.849L601.89 278.397Z" fill="white"/>
<path d="M484.873 235.567H499.604V213.533H505.398V81.41H499.604V81.3779H492.556H484.873H477.613L426.162 235.551H441.104L484.873 104.424V235.567Z" fill="white"/>
<path d="M543.945 81.3779V235.567H524.672V213.625H529.754V191.538H524.672V81.3779H543.945Z" fill="white"/>
<path d="M379.048 0L361.916 0V154.189H379.048V0Z" fill="white"/>
<path d="M316.391 102.798H322.491L331.454 154.189L349.066 154.189L340.104 102.798H334.003L325.025 51.391L318.925 51.391L309.962 0L300.874 0L278.24 0L265.023 0L254.84 0L254.84 154.189H278.24V60.3724H308.976L316.391 102.798Z" fill="white"/>
<path d="M177.762 256.981H193.667V242.332L193.749 237.067C193.814 229.993 198.311 224.695 206.354 224.227L211.08 224.162H227.001V209.868H177.746V256.981H177.762Z" fill="white"/>
<path d="M341.796 299.828H307.083C303.079 299.828 299.812 302.994 299.812 306.912V446.916C299.812 450.818 303.062 454 307.083 454H308.462C312.467 454 315.733 450.834 315.733 446.916V331.974L315.815 326.76C315.881 319.755 320.378 314.509 328.42 314.045L333.147 313.981H341.796C345.818 313.981 349.067 310.815 349.067 306.896C349.067 302.978 345.818 299.812 341.796 299.812V299.828Z" fill="white"/>
<path d="M663.869 81.3779H621.039L621.489 235.567H637.056L636.606 113.702L636.687 109.118C636.751 102.075 640.591 95.8834 649.105 95.6422C649.105 95.6422 658.086 95.6422 663.869 95.6261V81.3779Z" fill="white"/>
<path d="M724.845 362.044C713.094 361.32 708.383 354.472 708.062 343.974L707.933 339.28V296.983H692.355V376.352H740.6V362.124H728.495L724.845 362.044Z" fill="white"/>
<path d="M720.376 254.332C712.499 253.866 708.078 248.593 708.029 241.551L707.949 236.311V221.729H692.371V268.624H740.616V254.396H725.022L720.392 254.332H720.376Z" fill="white"/>
<path d="M740.6 275.44H691.68V289.668H740.6V275.44Z" fill="white"/>
<path d="M395.086 360.866C383.089 360.164 378.28 353.511 377.951 343.314L377.82 338.755V297.67H361.916V374.764H411.171V360.945H398.812L395.086 360.866Z" fill="white"/>
<path d="M390.507 253.33C382.465 252.862 377.951 247.564 377.902 240.49L377.82 235.224V220.575H361.916V267.688H411.171V253.395H395.25L390.524 253.33H390.507Z" fill="white"/>
<path d="M411.171 276.255H361.916V289.104H411.171V276.255Z" fill="white"/>
<path d="M789.826 227.398C785.331 222.882 779.752 220.575 773.243 220.575H772.917C766.408 220.575 760.829 222.866 756.335 227.398C751.825 231.946 749.531 237.664 749.531 244.406V249.718H764.533V244.406C764.533 241.612 765.323 239.37 766.951 237.567C768.547 235.796 770.5 234.935 772.917 234.935H773.243C775.661 234.935 777.613 235.796 779.21 237.567C780.837 239.37 781.627 241.595 781.627 244.406V244.747C781.627 248.142 780.465 250.757 778.094 252.772C773.971 256.264 765.571 255.696 765.571 255.696L765.633 263.022V346.924H780.558V271.437L780.589 268.204C785.316 266.466 789.128 263.655 791.964 259.838C795.064 255.663 796.645 250.579 796.645 244.731V244.39C796.645 237.648 794.351 231.93 789.841 227.382L789.826 227.398Z" fill="white"/>
<path d="M773.27 353.35H772.904C769.384 353.35 766.35 354.686 763.912 357.327C761.473 359.967 760.238 363.235 760.238 367.063V367.476C760.238 371.288 761.473 374.572 763.912 377.212C766.35 379.853 769.368 381.189 772.904 381.189H773.27C776.806 381.189 779.824 379.853 782.263 377.212C784.702 374.572 785.936 371.304 785.936 367.492V367.08C785.936 363.268 784.702 359.984 782.263 357.343C779.824 354.703 776.806 353.366 773.27 353.366V353.35Z" fill="white"/>
<path d="M171.32 209.868H124.207L124.207 256.981H139.415V236.401L156.442 256.981H171.32V251.32L148.524 224.175H171.32V209.868Z" fill="white"/>
<path d="M122.066 279.455H165.229C197.904 280.224 210.574 301.163 209.168 334.046V364.057H224.859V265.548H122.083V279.47L122.066 279.455Z" fill="white"/>
<path d="M67.9356 312.205L21.0584 229.143H0L0 385.295H15.5235L15.5235 293.167L66.5317 385.441L66.564 385.473H66.5962L80.8772 385.441H81.3775L81.3775 312.205H80.8772H67.9356Z" fill="white"/>
<path d="M81.3789 229.143L81.3789 305.285H87.954L87.954 383.332H102.748V383.284H102.794V369.671L102.748 229.159L81.3789 229.143Z" fill="white"/>
<path d="M295.528 305.456C295.528 309.424 292.319 312.661 288.348 312.661H246.273V286.963H259.612V298.202L262.578 298.234H288.348C292.319 298.234 295.528 301.471 295.528 305.44V305.456Z" fill="white"/>
<path d="M262.335 353.35C271.205 353.35 278.396 345.68 278.396 336.218C278.396 326.756 271.205 319.086 262.335 319.086C253.464 319.086 246.273 326.756 246.273 336.218C246.273 345.68 253.464 353.35 262.335 353.35Z" fill="white"/>
<path d="M233.426 122.067H194.879V130.633H233.426V122.067Z" fill="white"/>
<path d="M436.869 122.067H398.322V130.633H436.869V122.067Z" fill="white"/>
<path d="M511.295 386.045C469.659 384.201 468.371 355.526 467.742 339.472C467.614 336.377 467.501 332.897 467.501 330.475V299.812H451.861V400.463H554.654V386.237H519.944L511.295 386.029V386.045Z" fill="white"/>
<path d="M498.975 246.273H451.861V291.245H467.076V271.607L484.104 291.245H498.975V285.841L476.176 259.923H498.975V246.273Z" fill="white"/>
<path d="M580.268 128.545L597.517 235.567H612.473V203.291H607.095L591.52 109.665C590.373 102.798 592.697 95.6743 602.074 95.5135H611.667V81.3779L565.359 81.3779V235.567H580.268V128.545Z" fill="white"/>
<path d="M693.901 74.8911V71.3543H724.928V41.6133L678.211 41.6133V55.4067L709.881 55.4067V58.5576H678.854V88.6845H725.571V74.8911H693.901Z" fill="white"/>
<path d="M700.618 153.97L711.036 94.0059H695.57L679.285 187.875V195.061H725.569V180.914H715.601C715.601 180.914 712.675 180.85 711.968 180.785C698.641 179.419 697.934 169.741 699.541 160.304L700.618 153.986V153.97Z" fill="white"/>
<path d="M175.606 42.8311H156.332L156.332 199.161H175.606L175.606 42.8311Z" fill="white"/>
<path d="M141.341 166.454L141.341 199.161H122.779L84.7228 53.5604L84.7228 121.004H81.5473L81.5473 199.161H64.2461L64.2461 42.8311L87.5381 42.8311L125.594 188.432V166.454H141.341Z" fill="white"/>
</svg>
