<svg width="404" height="237" viewBox="0 0 404 237" fill="none" xmlns="http://www.w3.org/2000/svg">
<g filter="url(#filter0_d_4636_27329)">
<path d="M215.496 106.677H215.497V35.5586H314.68V15.6455H373.023V106.677H399.28V194.863H349.689V221.89H272.384V209.088H218.413V194.863H177.572V229H120.687V190.76H85.6816V201.977H4V109.523H34.6299V21.8779H125.063V0H215.496V106.677Z" fill="white"/>
</g>
<path d="M256.812 132.75H264.206L266.401 132.781C270.136 133.001 272.232 135.488 272.255 138.809L272.293 141.282V173.776H279.679V126.039H256.805V132.75H256.812Z" fill="#BBBBBB"/>
<path d="M334.376 140.957H327.414V212.563H334.376V140.957Z" fill="#BBBBBB"/>
<path d="M301.62 140.957H294.905H291.95H289.562V197.576H288.633V212.563H289.562H291.725H294.905V158.807L303.819 212.563H304.632H313.496V180.068H308.102L301.62 140.957Z" fill="#BBBBBB"/>
<path d="M247.277 121.067H254.118V110.834H256.809V49.4759H254.118V49.4609H250.845H247.277H243.906L220.012 121.06H226.951L247.277 60.1634V121.067Z" fill="#BBBBBB"/>
<path d="M274.705 49.4609V121.067H265.754V110.877H268.114V100.62H265.754V49.4609H274.705Z" fill="#BBBBBB"/>
<path d="M198.128 11.668L190.172 11.668V83.2741H198.128V11.668Z" fill="#BBBBBB"/>
<path d="M169.034 59.4078H171.867L176.029 83.2741H184.208L180.046 59.4078H177.213L173.043 35.5342H170.21L166.048 11.668H161.828L151.316 11.668L145.178 11.668H140.449V83.2741H151.316V39.7052H165.59L169.034 59.4078Z" fill="#BBBBBB"/>
<path d="M104.652 131.012H112.038V124.209L112.076 121.764C112.107 118.479 114.195 116.018 117.93 115.801L120.125 115.771H127.519V109.133H104.645V131.012H104.652Z" fill="#BBBBBB"/>
<path d="M180.826 150.91H164.705C162.845 150.91 161.328 152.38 161.328 154.2V219.218C161.328 221.03 162.837 222.508 164.705 222.508H165.345C167.205 222.508 168.722 221.038 168.722 219.218V165.839L168.76 163.417C168.79 160.164 170.879 157.728 174.614 157.513L176.809 157.483H180.826C182.693 157.483 184.202 156.012 184.202 154.193C184.202 152.373 182.693 150.902 180.826 150.902V150.91Z" fill="#BBBBBB"/>
<path d="M330.402 49.4609H310.512L310.721 121.067H317.95L317.741 64.4722L317.779 62.3438C317.808 59.0726 319.592 56.1973 323.546 56.0853C323.546 56.0853 327.716 56.0853 330.402 56.0779V49.4609Z" fill="#BBBBBB"/>
<path d="M358.717 179.8C353.26 179.464 351.072 176.284 350.923 171.409L350.863 169.229V149.586H343.629V186.445H366.034V179.838H360.412L358.717 179.8Z" fill="#BBBBBB"/>
<path d="M356.642 129.779C352.984 129.563 350.931 127.114 350.908 123.844L350.871 121.41V114.639H343.637V136.417H366.042V129.809H358.8L356.65 129.779H356.642Z" fill="#BBBBBB"/>
<path d="M366.039 139.584H343.32V146.191H366.039V139.584Z" fill="#BBBBBB"/>
<path d="M205.576 179.257C200.004 178.931 197.771 175.841 197.619 171.106L197.558 168.988V149.908H190.172V185.711H213.046V179.293H207.307L205.576 179.257Z" fill="#BBBBBB"/>
<path d="M203.45 129.315C199.715 129.097 197.619 126.637 197.596 123.352L197.558 120.907V114.104H190.172V135.983H213.046V129.345H205.653L203.457 129.315H203.45Z" fill="#BBBBBB"/>
<path d="M213.046 139.963H190.172V145.93H213.046V139.963Z" fill="#BBBBBB"/>
<path d="M388.896 117.272C386.809 115.175 384.218 114.104 381.195 114.104H381.044C378.021 114.104 375.43 115.167 373.343 117.272C371.249 119.384 370.184 122.04 370.184 125.171V127.637H377.151V125.171C377.151 123.873 377.518 122.832 378.273 121.995C379.015 121.172 379.921 120.772 381.044 120.772H381.195C382.318 120.772 383.225 121.172 383.966 121.995C384.722 122.832 385.089 123.865 385.089 125.171V125.329C385.089 126.906 384.549 128.12 383.448 129.056C381.534 130.678 377.633 130.414 377.633 130.414L377.662 133.816V172.781H384.592V137.724L384.607 136.223C386.802 135.415 388.573 134.11 389.89 132.337C391.329 130.399 392.063 128.037 392.063 125.321V125.163C392.063 122.032 390.998 119.377 388.904 117.264L388.896 117.272Z" fill="#BBBBBB"/>
<path d="M381.208 175.768H381.038C379.403 175.768 377.995 176.388 376.862 177.615C375.73 178.841 375.156 180.358 375.156 182.136V182.328C375.156 184.098 375.73 185.623 376.862 186.849C377.995 188.076 379.396 188.696 381.038 188.696H381.208C382.851 188.696 384.252 188.076 385.385 186.849C386.517 185.623 387.091 184.106 387.091 182.335V182.144C387.091 180.374 386.517 178.848 385.385 177.622C384.252 176.396 382.851 175.775 381.208 175.775V175.768Z" fill="#BBBBBB"/>
<path d="M101.657 109.133H79.7773V131.012H86.84V121.455L94.7472 131.012H101.657V128.383L91.0703 115.777H101.657V109.133Z" fill="#BBBBBB"/>
<path d="M78.7812 141.447H98.8263C114.001 141.804 119.884 151.528 119.232 166.799V180.737H126.519V134.988H78.7888V141.454L78.7812 141.447Z" fill="#BBBBBB"/>
<path d="M53.6473 156.659L31.8773 118.084H22.0977L22.0977 190.602H29.3069L29.3069 147.817L52.9953 190.67L53.0103 190.685H53.0253L59.6574 190.67H59.8898L59.8898 156.659H59.6574H53.6473Z" fill="#BBBBBB"/>
<path d="M59.8906 118.084L59.8906 153.445H62.9441L62.9441 189.69H69.8145V189.668H69.8359V183.346L69.8145 118.091L59.8906 118.084Z" fill="#BBBBBB"/>
<path d="M159.339 153.524C159.339 155.367 157.849 156.87 156.005 156.87H136.465V144.936H142.659V150.155L144.037 150.17H156.005C157.849 150.17 159.339 151.673 159.339 153.516V153.524Z" fill="#BBBBBB"/>
<path d="M143.924 175.766C148.043 175.766 151.383 172.204 151.383 167.81C151.383 163.416 148.043 159.854 143.924 159.854C139.804 159.854 136.465 163.416 136.465 167.81C136.465 172.204 139.804 175.766 143.924 175.766Z" fill="#BBBBBB"/>
<path d="M130.499 68.3574H112.598V72.3355H130.499V68.3574Z" fill="#BBBBBB"/>
<path d="M224.984 68.3574H207.082V72.3355H224.984V68.3574Z" fill="#BBBBBB"/>
<path d="M259.543 190.95C240.207 190.093 239.608 176.776 239.317 169.321C239.257 167.883 239.204 166.267 239.204 165.143V150.902H231.941V197.645H279.679V191.039H263.559L259.543 190.942V190.95Z" fill="#BBBBBB"/>
<path d="M253.821 126.039H231.941V146.924H239.007V137.804L246.915 146.924H253.821V144.414L243.233 132.378H253.821V126.039Z" fill="#BBBBBB"/>
<path d="M291.572 71.3655L299.583 121.067H306.528V106.078H304.031L296.797 62.5977C296.265 59.4087 297.344 56.1003 301.699 56.0256H306.154V49.4609H284.648V121.067H291.572V71.3655Z" fill="#BBBBBB"/>
<path d="M344.345 46.4465V44.8041H358.754V30.9922L337.059 30.9922V37.3979H351.766V38.8612H337.357V52.8523H359.053V46.4465H344.345Z" fill="#BBBBBB"/>
<path d="M347.466 83.1719L352.304 55.3242H345.122L337.559 98.9175V102.255H359.053V95.6847H354.424C354.424 95.6847 353.065 95.6549 352.737 95.625C346.547 94.9904 346.219 90.496 346.966 86.1135L347.466 83.1794V83.1719Z" fill="#BBBBBB"/>
<path d="M103.646 31.5586H94.6953L94.6953 104.159H103.646L103.646 31.5586Z" fill="#BBBBBB"/>
<path d="M87.7366 88.9697L87.7366 104.159H79.1165L61.4431 36.5414L61.4431 67.8627H59.9684L59.9684 104.159H51.9336L51.9336 31.5586H62.7505L80.424 99.1764V88.9697H87.7366Z" fill="#BBBBBB"/>
<defs>
<filter id="filter0_d_4636_27329" x="0" y="0" width="403.281" height="237" filterUnits="userSpaceOnUse" color-interpolation-filters="sRGB">
<feFlood flood-opacity="0" result="BackgroundImageFix"/>
<feColorMatrix in="SourceAlpha" type="matrix" values="0 0 0 0 0 0 0 0 0 0 0 0 0 0 0 0 0 0 127 0" result="hardAlpha"/>
<feOffset dy="4"/>
<feGaussianBlur stdDeviation="2"/>
<feComposite in2="hardAlpha" operator="out"/>
<feColorMatrix type="matrix" values="0 0 0 0 0 0 0 0 0 0 0 0 0 0 0 0 0 0 0.05 0"/>
<feBlend mode="normal" in2="BackgroundImageFix" result="effect1_dropShadow_4636_27329"/>
<feBlend mode="normal" in="SourceGraphic" in2="effect1_dropShadow_4636_27329" result="shape"/>
</filter>
</defs>
</svg>
