<svg width="192" height="71" viewBox="0 0 192 71" fill="none" xmlns="http://www.w3.org/2000/svg">
<g filter="url(#filter0_d_4636_27559)">
<rect x="4" y="8" width="101" height="32" fill="white"/>
<rect x="55" y="32" width="116" height="31" fill="white"/>
</g>
<path d="M14 11.9648V3.96191H14.999H15.998V4.96094V5.95996H16.9971H17.9961V6.95898V7.95801H16.9971H15.998V13.9629V19.957H14.999H14V11.9648ZM20.0049 7.95801V9.9668V11.9648H19.0059H17.9961V9.9668V7.95801H19.0059H20.0049ZM20.0049 7.95801V6.95898V5.95996H21.0039H22.0029V4.96094V3.96191H23.002H24.001V11.9648V19.957H23.002H22.0029V13.9629V7.95801H21.0039H20.0049ZM34.0127 16.96V15.9609H31.0156H28.0078V16.96V17.959H31.0156H34.0127V16.96ZM28.0078 10.9551V9.95605H31.0156H34.0127V10.9551V11.9648H31.0156H28.0078V10.9551ZM28.0078 15.9609V14.9619V13.9629H31.0156H34.0127V12.9639V11.9648H35.0117H36.0107V15.9609V19.957H32.0146H28.0078V18.958V17.959H27.0088H26.0098V16.96V15.9609H27.0088H28.0078ZM38.0195 16.96V9.95605H39.0186H40.0176V10.9551V11.9648H41.0166H42.0156V12.9639V13.9629H41.0166H40.0176V15.9609V17.959H43.0254H46.0225V14.9619V11.9648H44.0244H42.0156V10.9551V9.95605H44.0244H46.0225V10.9551V11.9648H47.0215H48.0205V14.9619V17.959H47.0215H46.0225V18.9688V19.9678H43.0254H40.0176V21.9658V23.9639H39.0186H38.0195V16.96ZM50.0293 16.96V9.95605H51.0283H52.0273V10.9551V11.9648H53.0264H54.0254V12.9639V13.9629H53.0264H52.0273V15.9609V17.959H55.0352H58.0322V14.9619V11.9648H56.0342H54.0254V10.9551V9.95605H56.0342H58.0322V10.9551V11.9648H59.0312H60.0303V14.9619V17.959H59.0312H58.0322V18.9688V19.9678H55.0352H52.0273V21.9658V23.9639H51.0283H50.0293V16.96ZM66.0352 6.95898V5.95996H67.0342H68.0439V6.95898V7.95801H67.0342H66.0352V6.95898ZM64.0371 10.9658V9.95605H66.0352H68.0439V13.9629V17.959H69.043H70.042V18.958V19.957H68.0439H66.0352V15.9609V11.9648H65.0361H64.0371V10.9658ZM74.0488 14.9619V9.95605H78.0557H82.0518V10.9551V11.9648H79.0547H76.0469V15.9609V19.957H75.0479H74.0488V14.9619ZM82.0518 11.9648H83.0508H84.0498V15.9609V19.957H83.0508H82.0518V15.9609V11.9648ZM94.0615 13.9629V11.9648H91.0645H88.0566V14.9619V17.959H90.0654H92.0635V16.96V15.9609H93.0625H94.0615V13.9629ZM88.0566 10.9551V9.95605H92.0635H96.0596V15.9609V21.9658H95.0605H94.0615V19.9678V17.959H93.0625H92.0635V18.9688V19.9678H90.0654H88.0566V18.9688V17.959H87.0576H86.0586V14.9619V11.9648H87.0576H88.0566V10.9551ZM94.0615 21.9658V22.9648V23.9639H91.0645H88.0566V22.9648V21.9658H91.0645H94.0615ZM62.0391 31.96V29.9619H63.0381H64.0371V31.96V33.958H63.0381H62.0391V31.96ZM70.042 33.958V34.957V35.9668H69.043H68.0439V40.9619V45.957H67.0449H66.0352V40.9619V35.9668H65.0361H64.0371V34.957V33.958H65.0361H66.0352V34.957V35.9668H67.0449H68.0439V34.957V33.958H69.043H70.042ZM70.042 33.958V31.96V29.9619H71.041H72.04V31.96V33.958H71.041H70.042ZM76.0469 36.9551V35.9561H79.0547H82.0518V36.9551V37.9648H79.0547H76.0469V40.9619V43.959H79.0547H82.0518V40.9619V37.9648H83.0508H84.0498V40.9619V43.959H83.0508H82.0518V44.958V45.957H79.0547H76.0469V44.958V43.959H75.0479H74.0488V40.9619V37.9648H75.0479H76.0469V36.9551ZM86.0586 39.9629V35.9561H87.0576H88.0566V39.9629V43.959H87.0576H86.0586V39.9629ZM92.0635 43.959V44.958V45.957H90.0654H88.0566V44.958V43.959H90.0654H92.0635ZM92.0635 43.959V42.96V41.9609H93.0625H94.0615V38.9639V35.9561H95.0605H96.0596V40.9619V45.957H95.0605H94.0615V44.958V43.959H93.0625H92.0635ZM98.0684 40.9619V35.9561H99.0674H100.066V36.9551V37.9648H101.065H102.064V38.9639V39.9629H101.065H100.066V42.96V45.957H99.0674H98.0684V40.9619ZM106.071 37.9648H104.073H102.064V36.9551V35.9561H104.073H106.071V36.9551V37.9648ZM106.071 37.9648H107.07H108.069V38.9639V39.9629H107.07H106.071V38.9639V37.9648ZM122.088 30.9609V29.9619H127.083H132.089V30.9609V31.96H130.091H128.093V38.9639V45.957H127.094H126.084V38.9639V31.96H124.086H122.088V30.9609ZM138.094 32.959V31.96H139.093H140.103V32.959V33.958H139.093H138.094V32.959ZM136.096 36.9658V35.9561H138.094H140.103V39.9629V43.959H141.102H142.101V44.958V45.957H140.103H138.094V41.9609V37.9648H137.095H136.096V36.9658ZM146.107 40.9619V35.9561H150.114H154.11V36.9551V37.9648H153.111H152.112V41.9609V45.957H151.113H150.104V41.9609V37.9648H149.104H148.105V41.9609V45.957H147.106H146.107V40.9619ZM154.11 37.9648H155.109H156.108V41.9609V45.957H155.109H154.11V41.9609V37.9648ZM160.115 36.9551V35.9561H163.123H166.12V36.9551V37.9648H163.123H160.115V38.9639V39.9629H163.123H166.12V38.9639V37.9648H167.119H168.118V39.9629V41.9609H164.122H160.115V42.96V43.959H159.116H158.117V40.9619V37.9648H159.116H160.115V36.9551ZM160.115 43.959H164.122H168.118V44.958V45.957H164.122H160.115V44.958V43.959Z" fill="black"/>
<defs>
<filter id="filter0_d_4636_27559" x="0" y="8" width="175" height="63" filterUnits="userSpaceOnUse" color-interpolation-filters="sRGB">
<feFlood flood-opacity="0" result="BackgroundImageFix"/>
<feColorMatrix in="SourceAlpha" type="matrix" values="0 0 0 0 0 0 0 0 0 0 0 0 0 0 0 0 0 0 127 0" result="hardAlpha"/>
<feOffset dy="4"/>
<feGaussianBlur stdDeviation="2"/>
<feComposite in2="hardAlpha" operator="out"/>
<feColorMatrix type="matrix" values="0 0 0 0 0 0 0 0 0 0 0 0 0 0 0 0 0 0 0.05 0"/>
<feBlend mode="normal" in2="BackgroundImageFix" result="effect1_dropShadow_4636_27559"/>
<feBlend mode="normal" in="SourceGraphic" in2="effect1_dropShadow_4636_27559" result="shape"/>
</filter>
</defs>
</svg>
