<svg width="192" height="72" viewBox="0 0 192 72" fill="none" xmlns="http://www.w3.org/2000/svg">
<g filter="url(#filter0_f_4638_27729)">
<g filter="url(#filter1_d_4638_27729)">
<rect x="4" y="8.03906" width="101" height="32" fill="white"/>
<rect x="55" y="32.0391" width="116" height="31" fill="white"/>
</g>
<path d="M14 12.0039V4.00098H14.999H15.998V5V5.99902H16.9971H17.9961V6.99805V7.99707H16.9971H15.998V14.002V19.9961H14.999H14V12.0039ZM20.0049 7.99707V10.0059V12.0039H19.0059H17.9961V10.0059V7.99707H19.0059H20.0049ZM20.0049 7.99707V6.99805V5.99902H21.0039H22.0029V5V4.00098H23.002H24.001V12.0039V19.9961H23.002H22.0029V14.002V7.99707H21.0039H20.0049ZM34.0127 16.999V16H31.0156H28.0078V16.999V17.998H31.0156H34.0127V16.999ZM28.0078 10.9941V9.99512H31.0156H34.0127V10.9941V12.0039H31.0156H28.0078V10.9941ZM28.0078 16V15.001V14.002H31.0156H34.0127V13.0029V12.0039H35.0117H36.0107V16V19.9961H32.0146H28.0078V18.9971V17.998H27.0088H26.0098V16.999V16H27.0088H28.0078ZM38.0195 16.999V9.99512H39.0186H40.0176V10.9941V12.0039H41.0166H42.0156V13.0029V14.002H41.0166H40.0176V16V17.998H43.0254H46.0225V15.001V12.0039H44.0244H42.0156V10.9941V9.99512H44.0244H46.0225V10.9941V12.0039H47.0215H48.0205V15.001V17.998H47.0215H46.0225V19.0078V20.0068H43.0254H40.0176V22.0049V24.0029H39.0186H38.0195V16.999ZM50.0293 16.999V9.99512H51.0283H52.0273V10.9941V12.0039H53.0264H54.0254V13.0029V14.002H53.0264H52.0273V16V17.998H55.0352H58.0322V15.001V12.0039H56.0342H54.0254V10.9941V9.99512H56.0342H58.0322V10.9941V12.0039H59.0312H60.0303V15.001V17.998H59.0312H58.0322V19.0078V20.0068H55.0352H52.0273V22.0049V24.0029H51.0283H50.0293V16.999ZM66.0352 6.99805V5.99902H67.0342H68.0439V6.99805V7.99707H67.0342H66.0352V6.99805ZM64.0371 11.0049V9.99512H66.0352H68.0439V14.002V17.998H69.043H70.042V18.9971V19.9961H68.0439H66.0352V16V12.0039H65.0361H64.0371V11.0049ZM74.0488 15.001V9.99512H78.0557H82.0518V10.9941V12.0039H79.0547H76.0469V16V19.9961H75.0479H74.0488V15.001ZM82.0518 12.0039H83.0508H84.0498V16V19.9961H83.0508H82.0518V16V12.0039ZM94.0615 14.002V12.0039H91.0645H88.0566V15.001V17.998H90.0654H92.0635V16.999V16H93.0625H94.0615V14.002ZM88.0566 10.9941V9.99512H92.0635H96.0596V16V22.0049H95.0605H94.0615V20.0068V17.998H93.0625H92.0635V19.0078V20.0068H90.0654H88.0566V19.0078V17.998H87.0576H86.0586V15.001V12.0039H87.0576H88.0566V10.9941ZM94.0615 22.0049V23.0039V24.0029H91.0645H88.0566V23.0039V22.0049H91.0645H94.0615ZM62.0391 31.999V30.001H63.0381H64.0371V31.999V33.9971H63.0381H62.0391V31.999ZM70.042 33.9971V34.9961V36.0059H69.043H68.0439V41.001V45.9961H67.0449H66.0352V41.001V36.0059H65.0361H64.0371V34.9961V33.9971H65.0361H66.0352V34.9961V36.0059H67.0449H68.0439V34.9961V33.9971H69.043H70.042ZM70.042 33.9971V31.999V30.001H71.041H72.04V31.999V33.9971H71.041H70.042ZM76.0469 36.9941V35.9951H79.0547H82.0518V36.9941V38.0039H79.0547H76.0469V41.001V43.998H79.0547H82.0518V41.001V38.0039H83.0508H84.0498V41.001V43.998H83.0508H82.0518V44.9971V45.9961H79.0547H76.0469V44.9971V43.998H75.0479H74.0488V41.001V38.0039H75.0479H76.0469V36.9941ZM86.0586 40.002V35.9951H87.0576H88.0566V40.002V43.998H87.0576H86.0586V40.002ZM92.0635 43.998V44.9971V45.9961H90.0654H88.0566V44.9971V43.998H90.0654H92.0635ZM92.0635 43.998V42.999V42H93.0625H94.0615V39.0029V35.9951H95.0605H96.0596V41.001V45.9961H95.0605H94.0615V44.9971V43.998H93.0625H92.0635ZM98.0684 41.001V35.9951H99.0674H100.066V36.9941V38.0039H101.065H102.064V39.0029V40.002H101.065H100.066V42.999V45.9961H99.0674H98.0684V41.001ZM106.071 38.0039H104.073H102.064V36.9941V35.9951H104.073H106.071V36.9941V38.0039ZM106.071 38.0039H107.07H108.069V39.0029V40.002H107.07H106.071V39.0029V38.0039ZM122.088 31V30.001H127.083H132.089V31V31.999H130.091H128.093V39.0029V45.9961H127.094H126.084V39.0029V31.999H124.086H122.088V31ZM138.094 32.998V31.999H139.093H140.103V32.998V33.9971H139.093H138.094V32.998ZM136.096 37.0049V35.9951H138.094H140.103V40.002V43.998H141.102H142.101V44.9971V45.9961H140.103H138.094V42V38.0039H137.095H136.096V37.0049ZM146.107 41.001V35.9951H150.114H154.11V36.9941V38.0039H153.111H152.112V42V45.9961H151.113H150.104V42V38.0039H149.104H148.105V42V45.9961H147.106H146.107V41.001ZM154.11 38.0039H155.109H156.108V42V45.9961H155.109H154.11V42V38.0039ZM160.115 36.9941V35.9951H163.123H166.12V36.9941V38.0039H163.123H160.115V39.0029V40.002H163.123H166.12V39.0029V38.0039H167.119H168.118V40.002V42H164.122H160.115V42.999V43.998H159.116H158.117V41.001V38.0039H159.116H160.115V36.9941ZM160.115 43.998H164.122H168.118V44.9971V45.9961H164.122H160.115V44.9971V43.998Z" fill="black"/>
</g>
<defs>
<filter id="filter0_f_4638_27729" x="0" y="0" width="175" height="67.0391" filterUnits="userSpaceOnUse" color-interpolation-filters="sRGB">
<feFlood flood-opacity="0" result="BackgroundImageFix"/>
<feBlend mode="normal" in="SourceGraphic" in2="BackgroundImageFix" result="shape"/>
<feGaussianBlur stdDeviation="2" result="effect1_foregroundBlur_4638_27729"/>
</filter>
<filter id="filter1_d_4638_27729" x="0" y="8.03906" width="175" height="63" filterUnits="userSpaceOnUse" color-interpolation-filters="sRGB">
<feFlood flood-opacity="0" result="BackgroundImageFix"/>
<feColorMatrix in="SourceAlpha" type="matrix" values="0 0 0 0 0 0 0 0 0 0 0 0 0 0 0 0 0 0 127 0" result="hardAlpha"/>
<feOffset dy="4"/>
<feGaussianBlur stdDeviation="2"/>
<feComposite in2="hardAlpha" operator="out"/>
<feColorMatrix type="matrix" values="0 0 0 0 0 0 0 0 0 0 0 0 0 0 0 0 0 0 0.05 0"/>
<feBlend mode="normal" in2="BackgroundImageFix" result="effect1_dropShadow_4638_27729"/>
<feBlend mode="normal" in="SourceGraphic" in2="effect1_dropShadow_4638_27729" result="shape"/>
</filter>
</defs>
</svg>
