<svg width="137" height="61" viewBox="0 0 137 61" fill="none" xmlns="http://www.w3.org/2000/svg">
<g filter="url(#filter0_d_4675_28909)">
<rect x="4" y="9" width="76" height="25" fill="white"/>
<rect x="18" y="28" width="94" height="25" fill="white"/>
</g>
<path d="M19.998 4.96094V3.96191H23.0059H26.0029V4.96094V5.95996H23.0059H19.998V4.96094ZM19.998 17.959H23.0059H26.0029V14.9619V11.9648H23.0059H19.998V10.9658V9.9668H18.999H18V7.95801V5.95996H18.999H19.998V7.95801V9.9668H23.0059H26.0029V10.9658V11.9648H27.002H28.001V14.9619V17.959H27.002H26.0029V18.958V19.957H23.0059H19.998V18.958V17.959ZM19.998 17.959H18.999H18V16.96V15.9609H18.999H19.998V16.96V17.959ZM26.0029 5.95996H27.002H28.001V6.95898V7.95801H27.002H26.0029V6.95898V5.95996ZM32.0078 10.9551V9.95605H35.0156H38.0127V10.9551V11.9648H35.0156H32.0078V12.9639V13.9629H35.0156H38.0127V12.9639V11.9648H39.0117H40.0107V13.9629V15.9609H36.0146H32.0078V16.96V17.959H31.0088H30.0098V14.9619V11.9648H31.0088H32.0078V10.9551ZM32.0078 17.959H36.0146H40.0107V18.958V19.957H36.0146H32.0078V18.958V17.959ZM44.0176 4.96094V3.96191H46.0156H48.0244V10.9658V17.959H47.0146H46.0156V11.9648V5.95996H45.0166H44.0176V4.96094ZM48.0244 17.959H50.0225H52.0205V18.958V19.957H50.0225H48.0244V18.958V17.959ZM58.0254 4.96094V3.96191H60.0342H62.0322V4.96094V5.95996H60.0342H58.0254V4.96094ZM58.0254 5.95996V7.95801V9.9668H60.0342H62.0322V10.9658V11.9648H60.0342H58.0254V15.9609V19.957H57.0264H56.0273V12.9639V5.95996H57.0264H58.0254ZM66.0391 12.9746V11.9756H71.0342H76.04V12.9746V13.9736H71.0342H66.0391V12.9746ZM19.998 30.9609V29.9619H22.9951H26.0029V30.9609V31.96H25.0039H24.0049V37.9648V43.959H25.0039H26.0029V44.958V45.957H22.9951H19.998V44.958V43.959H20.9971H21.9961V37.9648V31.96H20.9971H19.998V30.9609ZM38.0127 39.9629V37.9648H35.0156H32.0078V40.9619V43.959H34.0166H36.0146V42.96V41.9609H37.0137H38.0127V39.9629ZM38.0127 32.959V29.9619H39.0117H40.0107V37.9648V45.957H39.0117H38.0127V44.958V43.959H37.0137H36.0146V44.958V45.957H34.0166H32.0078V44.958V43.959H31.0088H30.0098V40.9619V37.9648H31.0088H32.0078V36.9658V35.9668H35.0156H38.0127V32.959ZM44.0176 36.9551V35.9561H47.0254H50.0225V36.9551V37.9648H47.0254H44.0176V38.9639V39.9629H47.0254H50.0225V38.9639V37.9648H51.0215H52.0205V39.9629V41.9609H48.0244H44.0176V42.96V43.959H43.0186H42.0195V40.9619V37.9648H43.0186H44.0176V36.9551ZM44.0176 43.959H48.0244H52.0205V44.958V45.957H48.0244H44.0176V44.958V43.959ZM54.0293 40.9619V35.9561H58.0361H62.0322V36.9551V37.9648H59.0352H56.0273V41.9609V45.957H55.0283H54.0293V40.9619ZM62.0322 37.9648H63.0312H64.0303V41.9609V45.957H63.0312H62.0322V41.9609V37.9648ZM68.0371 32.959V29.9619H69.0361H70.0352V32.959V35.9668H72.0439H74.042V36.9658V37.9648H72.0439H70.0352V40.9619V43.959H69.0361H68.0371V40.9619V37.9648H67.0381H66.0391V36.9658V35.9668H67.0381H68.0371V32.959ZM70.0352 43.959H72.0439H74.042V44.958V45.957H72.0439H70.0352V44.958V43.959ZM82.0449 32.959V31.96H83.0439H84.0537V32.959V33.958H83.0439H82.0449V32.959ZM80.0469 36.9658V35.9561H82.0449H84.0537V39.9629V43.959H85.0527H86.0518V44.958V45.957H84.0537H82.0449V41.9609V37.9648H81.0459H80.0469V36.9658ZM92.0566 32.959V29.9619H93.0557H94.0547V32.959V35.9668H96.0635H98.0615V36.9658V37.9648H96.0635H94.0547V40.9619V43.959H93.0557H92.0566V40.9619V37.9648H91.0576H90.0586V36.9658V35.9668H91.0576H92.0566V32.959ZM94.0547 43.959H96.0635H98.0615V44.958V45.957H96.0635H94.0547V44.958V43.959ZM102.068 39.9629V35.9561H103.067H104.066V39.9629V43.959H103.067H102.068V39.9629ZM110.071 47.9658V45.9678V43.959H109.072H108.073V44.9688V45.9678H106.075H104.066V44.9688V43.959H106.075H108.073V42.96V41.9609H109.072H110.071V38.9639V35.9561H111.07H112.069V41.9609V47.9658H111.07H110.071ZM110.071 47.9658V48.9648V49.9639H107.074H104.066V48.9648V47.9658H107.074H110.071Z" fill="#555552"/>
<defs>
<filter id="filter0_d_4675_28909" x="0" y="9" width="116" height="52" filterUnits="userSpaceOnUse" color-interpolation-filters="sRGB">
<feFlood flood-opacity="0" result="BackgroundImageFix"/>
<feColorMatrix in="SourceAlpha" type="matrix" values="0 0 0 0 0 0 0 0 0 0 0 0 0 0 0 0 0 0 127 0" result="hardAlpha"/>
<feOffset dy="4"/>
<feGaussianBlur stdDeviation="2"/>
<feComposite in2="hardAlpha" operator="out"/>
<feColorMatrix type="matrix" values="0 0 0 0 0 0 0 0 0 0 0 0 0 0 0 0 0 0 0.05 0"/>
<feBlend mode="normal" in2="BackgroundImageFix" result="effect1_dropShadow_4675_28909"/>
<feBlend mode="normal" in="SourceGraphic" in2="effect1_dropShadow_4675_28909" result="shape"/>
</filter>
</defs>
</svg>
