<svg width="137" height="62" viewBox="0 0 137 62" fill="none" xmlns="http://www.w3.org/2000/svg">
<g filter="url(#filter0_f_4638_27750)">
<g filter="url(#filter1_d_4638_27750)">
<rect x="4" y="9.03906" width="76" height="25" fill="white"/>
<rect x="18" y="28.0391" width="94" height="25" fill="white"/>
</g>
<path d="M19.998 5V4.00098H23.0059H26.0029V5V5.99902H23.0059H19.998V5ZM19.998 17.998H23.0059H26.0029V15.001V12.0039H23.0059H19.998V11.0049V10.0059H18.999H18V7.99707V5.99902H18.999H19.998V7.99707V10.0059H23.0059H26.0029V11.0049V12.0039H27.002H28.001V15.001V17.998H27.002H26.0029V18.9971V19.9961H23.0059H19.998V18.9971V17.998ZM19.998 17.998H18.999H18V16.999V16H18.999H19.998V16.999V17.998ZM26.0029 5.99902H27.002H28.001V6.99805V7.99707H27.002H26.0029V6.99805V5.99902ZM32.0078 10.9941V9.99512H35.0156H38.0127V10.9941V12.0039H35.0156H32.0078V13.0029V14.002H35.0156H38.0127V13.0029V12.0039H39.0117H40.0107V14.002V16H36.0146H32.0078V16.999V17.998H31.0088H30.0098V15.001V12.0039H31.0088H32.0078V10.9941ZM32.0078 17.998H36.0146H40.0107V18.9971V19.9961H36.0146H32.0078V18.9971V17.998ZM44.0176 5V4.00098H46.0156H48.0244V11.0049V17.998H47.0146H46.0156V12.0039V5.99902H45.0166H44.0176V5ZM48.0244 17.998H50.0225H52.0205V18.9971V19.9961H50.0225H48.0244V18.9971V17.998ZM58.0254 5V4.00098H60.0342H62.0322V5V5.99902H60.0342H58.0254V5ZM58.0254 5.99902V7.99707V10.0059H60.0342H62.0322V11.0049V12.0039H60.0342H58.0254V16V19.9961H57.0264H56.0273V13.0029V5.99902H57.0264H58.0254ZM66.0391 13.0137V12.0146H71.0342H76.04V13.0137V14.0127H71.0342H66.0391V13.0137ZM19.998 31V30.001H22.9951H26.0029V31V31.999H25.0039H24.0049V38.0039V43.998H25.0039H26.0029V44.9971V45.9961H22.9951H19.998V44.9971V43.998H20.9971H21.9961V38.0039V31.999H20.9971H19.998V31ZM38.0127 40.002V38.0039H35.0156H32.0078V41.001V43.998H34.0166H36.0146V42.999V42H37.0137H38.0127V40.002ZM38.0127 32.998V30.001H39.0117H40.0107V38.0039V45.9961H39.0117H38.0127V44.9971V43.998H37.0137H36.0146V44.9971V45.9961H34.0166H32.0078V44.9971V43.998H31.0088H30.0098V41.001V38.0039H31.0088H32.0078V37.0049V36.0059H35.0156H38.0127V32.998ZM44.0176 36.9941V35.9951H47.0254H50.0225V36.9941V38.0039H47.0254H44.0176V39.0029V40.002H47.0254H50.0225V39.0029V38.0039H51.0215H52.0205V40.002V42H48.0244H44.0176V42.999V43.998H43.0186H42.0195V41.001V38.0039H43.0186H44.0176V36.9941ZM44.0176 43.998H48.0244H52.0205V44.9971V45.9961H48.0244H44.0176V44.9971V43.998ZM54.0293 41.001V35.9951H58.0361H62.0322V36.9941V38.0039H59.0352H56.0273V42V45.9961H55.0283H54.0293V41.001ZM62.0322 38.0039H63.0312H64.0303V42V45.9961H63.0312H62.0322V42V38.0039ZM68.0371 32.998V30.001H69.0361H70.0352V32.998V36.0059H72.0439H74.042V37.0049V38.0039H72.0439H70.0352V41.001V43.998H69.0361H68.0371V41.001V38.0039H67.0381H66.0391V37.0049V36.0059H67.0381H68.0371V32.998ZM70.0352 43.998H72.0439H74.042V44.9971V45.9961H72.0439H70.0352V44.9971V43.998ZM82.0449 32.998V31.999H83.0439H84.0537V32.998V33.9971H83.0439H82.0449V32.998ZM80.0469 37.0049V35.9951H82.0449H84.0537V40.002V43.998H85.0527H86.0518V44.9971V45.9961H84.0537H82.0449V42V38.0039H81.0459H80.0469V37.0049ZM92.0566 32.998V30.001H93.0557H94.0547V32.998V36.0059H96.0635H98.0615V37.0049V38.0039H96.0635H94.0547V41.001V43.998H93.0557H92.0566V41.001V38.0039H91.0576H90.0586V37.0049V36.0059H91.0576H92.0566V32.998ZM94.0547 43.998H96.0635H98.0615V44.9971V45.9961H96.0635H94.0547V44.9971V43.998ZM102.068 40.002V35.9951H103.067H104.066V40.002V43.998H103.067H102.068V40.002ZM110.071 48.0049V46.0068V43.998H109.072H108.073V45.0078V46.0068H106.075H104.066V45.0078V43.998H106.075H108.073V42.999V42H109.072H110.071V39.0029V35.9951H111.07H112.069V42V48.0049H111.07H110.071ZM110.071 48.0049V49.0039V50.0029H107.074H104.066V49.0039V48.0049H107.074H110.071Z" fill="black"/>
</g>
<defs>
<filter id="filter0_f_4638_27750" x="0" y="0" width="116.07" height="57.0391" filterUnits="userSpaceOnUse" color-interpolation-filters="sRGB">
<feFlood flood-opacity="0" result="BackgroundImageFix"/>
<feBlend mode="normal" in="SourceGraphic" in2="BackgroundImageFix" result="shape"/>
<feGaussianBlur stdDeviation="2" result="effect1_foregroundBlur_4638_27750"/>
</filter>
<filter id="filter1_d_4638_27750" x="0" y="9.03906" width="116" height="52" filterUnits="userSpaceOnUse" color-interpolation-filters="sRGB">
<feFlood flood-opacity="0" result="BackgroundImageFix"/>
<feColorMatrix in="SourceAlpha" type="matrix" values="0 0 0 0 0 0 0 0 0 0 0 0 0 0 0 0 0 0 127 0" result="hardAlpha"/>
<feOffset dy="4"/>
<feGaussianBlur stdDeviation="2"/>
<feComposite in2="hardAlpha" operator="out"/>
<feColorMatrix type="matrix" values="0 0 0 0 0 0 0 0 0 0 0 0 0 0 0 0 0 0 0.05 0"/>
<feBlend mode="normal" in2="BackgroundImageFix" result="effect1_dropShadow_4638_27750"/>
<feBlend mode="normal" in="SourceGraphic" in2="effect1_dropShadow_4638_27750" result="shape"/>
</filter>
</defs>
</svg>
