<svg width="170" height="48" viewBox="0 0 170 48" fill="none" xmlns="http://www.w3.org/2000/svg">
<g filter="url(#filter0_f_4638_27739)">
<g filter="url(#filter1_d_4638_27739)">
<rect x="8" y="8.03906" width="154" height="31" fill="white"/>
</g>
<path d="M14.9395 5V4.00098H17.9473H20.9443V5V5.99902H17.9473H14.9395V5ZM14.9395 17.998H17.9473H20.9443V15.001V12.0039H17.9473H14.9395V11.0049V10.0059H13.9404H12.9414V7.99707V5.99902H13.9404H14.9395V7.99707V10.0059H17.9473H20.9443V11.0049V12.0039H21.9434H22.9424V15.001V17.998H21.9434H20.9443V18.9971V19.9961H17.9473H14.9395V18.9971V17.998ZM14.9395 17.998H13.9404H12.9414V16.999V16H13.9404H14.9395V16.999V17.998ZM20.9443 5.99902H21.9434H22.9424V6.99805V7.99707H21.9434H20.9443V6.99805V5.99902ZM24.9512 12.0039V4.00098H25.9502H26.9492V7.99707V12.0039H27.9482H28.9473V13.0029V14.002H27.9482H26.9492V16.999V19.9961H25.9502H24.9512V12.0039ZM32.9541 12.0039H30.9561H28.9473V11.0049V10.0059H30.9561H32.9541V11.0049V12.0039ZM32.9541 12.0039H33.9531H34.9521V16V19.9961H33.9531H32.9541V16V12.0039ZM44.9639 16.999V16H41.9668H38.959V16.999V17.998H41.9668H44.9639V16.999ZM38.959 10.9941V9.99512H41.9668H44.9639V10.9941V12.0039H41.9668H38.959V10.9941ZM38.959 16V15.001V14.002H41.9668H44.9639V13.0029V12.0039H45.9629H46.9619V16V19.9961H42.9658H38.959V18.9971V17.998H37.96H36.9609V16.999V16H37.96H38.959ZM48.9707 16.999V9.99512H49.9697H50.9688V10.9941V12.0039H51.9678H52.9668V13.0029V14.002H51.9678H50.9688V16V17.998H53.9766H56.9736V15.001V12.0039H54.9756H52.9668V10.9941V9.99512H54.9756H56.9736V10.9941V12.0039H57.9727H58.9717V15.001V17.998H57.9727H56.9736V19.0078V20.0068H53.9766H50.9688V22.0049V24.0029H49.9697H48.9707V16.999ZM62.9785 10.9941V9.99512H65.9863H68.9834V10.9941V12.0039H65.9863H62.9785V13.0029V14.002H65.9863H68.9834V13.0029V12.0039H69.9824H70.9814V14.002V16H66.9854H62.9785V16.999V17.998H61.9795H60.9805V15.001V12.0039H61.9795H62.9785V10.9941ZM62.9785 17.998H66.9854H70.9814V18.9971V19.9961H66.9854H62.9785V18.9971V17.998ZM85 12.0039V4.00098H89.0068H93.0029V5V5.99902H90.0059H86.998V7.99707V10.0059H90.0059H93.0029V7.99707V5.99902H94.002H95.001V7.99707V10.0059H94.002H93.0029V11.0049V12.0039H90.0059H86.998V16V19.9961H85.999H85V12.0039ZM99.0078 10.9941V9.99512H102.016H105.013V10.9941V12.0039H102.016H99.0078V15.001V17.998H102.016H105.013V15.001V12.0039H106.012H107.011V15.001V17.998H106.012H105.013V18.9971V19.9961H102.016H99.0078V18.9971V17.998H98.0088H97.0098V15.001V12.0039H98.0088H99.0078V10.9941ZM111.018 10.9941V9.99512H114.025H117.022V10.9941V12.0039H114.025H111.018V10.9941ZM117.022 17.998V16.999V16H114.025H111.018V15.001V14.002H110.019H109.02V13.0029V12.0039H110.019H111.018V13.0029V14.002H114.025H117.022V15.001V16H118.021H119.021V16.999V17.998H118.021H117.022ZM117.022 17.998V18.9971V19.9961H113.026H109.02V18.9971V17.998H113.026H117.022ZM123.027 6.99805V4.00098H124.026H125.025V6.99805V10.0059H127.034H129.032V11.0049V12.0039H127.034H125.025V15.001V17.998H124.026H123.027V15.001V12.0039H122.028H121.029V11.0049V10.0059H122.028H123.027V6.99805ZM125.025 17.998H127.034H129.032V18.9971V19.9961H127.034H125.025V18.9971V17.998ZM135.037 10.9941V9.99512H138.045H141.042V10.9941V12.0039H138.045H135.037V13.0029V14.002H138.045H141.042V13.0029V12.0039H142.041H143.04V14.002V16H139.044H135.037V16.999V17.998H134.038H133.039V15.001V12.0039H134.038H135.037V10.9941ZM135.037 17.998H139.044H143.04V18.9971V19.9961H139.044H135.037V18.9971V17.998ZM145.049 15.001V9.99512H146.048H147.047V10.9941V12.0039H148.046H149.045V13.0029V14.002H148.046H147.047V16.999V19.9961H146.048H145.049V15.001ZM153.052 12.0039H151.054H149.045V10.9941V9.99512H151.054H153.052V10.9941V12.0039ZM153.052 12.0039H154.051H155.05V13.0029V14.002H154.051H153.052V13.0029V12.0039Z" fill="black"/>
</g>
<defs>
<filter id="filter0_f_4638_27739" x="4" y="0" width="162" height="43.0391" filterUnits="userSpaceOnUse" color-interpolation-filters="sRGB">
<feFlood flood-opacity="0" result="BackgroundImageFix"/>
<feBlend mode="normal" in="SourceGraphic" in2="BackgroundImageFix" result="shape"/>
<feGaussianBlur stdDeviation="2" result="effect1_foregroundBlur_4638_27739"/>
</filter>
<filter id="filter1_d_4638_27739" x="4" y="8.03906" width="162" height="39" filterUnits="userSpaceOnUse" color-interpolation-filters="sRGB">
<feFlood flood-opacity="0" result="BackgroundImageFix"/>
<feColorMatrix in="SourceAlpha" type="matrix" values="0 0 0 0 0 0 0 0 0 0 0 0 0 0 0 0 0 0 127 0" result="hardAlpha"/>
<feOffset dy="4"/>
<feGaussianBlur stdDeviation="2"/>
<feComposite in2="hardAlpha" operator="out"/>
<feColorMatrix type="matrix" values="0 0 0 0 0 0 0 0 0 0 0 0 0 0 0 0 0 0 0.05 0"/>
<feBlend mode="normal" in2="BackgroundImageFix" result="effect1_dropShadow_4638_27739"/>
<feBlend mode="normal" in="SourceGraphic" in2="effect1_dropShadow_4638_27739" result="shape"/>
</filter>
</defs>
</svg>
