<svg width="170" height="47" viewBox="0 0 170 47" fill="none" xmlns="http://www.w3.org/2000/svg">
<g filter="url(#filter0_d_4675_28898)">
<rect x="8" y="8" width="154" height="31" fill="white"/>
</g>
<path d="M14.9395 4.96094V3.96191H17.9473H20.9443V4.96094V5.95996H17.9473H14.9395V4.96094ZM14.9395 17.959H17.9473H20.9443V14.9619V11.9648H17.9473H14.9395V10.9658V9.9668H13.9404H12.9414V7.95801V5.95996H13.9404H14.9395V7.95801V9.9668H17.9473H20.9443V10.9658V11.9648H21.9434H22.9424V14.9619V17.959H21.9434H20.9443V18.958V19.957H17.9473H14.9395V18.958V17.959ZM14.9395 17.959H13.9404H12.9414V16.96V15.9609H13.9404H14.9395V16.96V17.959ZM20.9443 5.95996H21.9434H22.9424V6.95898V7.95801H21.9434H20.9443V6.95898V5.95996ZM24.9512 11.9648V3.96191H25.9502H26.9492V7.95801V11.9648H27.9482H28.9473V12.9639V13.9629H27.9482H26.9492V16.96V19.957H25.9502H24.9512V11.9648ZM32.9541 11.9648H30.9561H28.9473V10.9658V9.9668H30.9561H32.9541V10.9658V11.9648ZM32.9541 11.9648H33.9531H34.9521V15.9609V19.957H33.9531H32.9541V15.9609V11.9648ZM44.9639 16.96V15.9609H41.9668H38.959V16.96V17.959H41.9668H44.9639V16.96ZM38.959 10.9551V9.95605H41.9668H44.9639V10.9551V11.9648H41.9668H38.959V10.9551ZM38.959 15.9609V14.9619V13.9629H41.9668H44.9639V12.9639V11.9648H45.9629H46.9619V15.9609V19.957H42.9658H38.959V18.958V17.959H37.96H36.9609V16.96V15.9609H37.96H38.959ZM48.9707 16.96V9.95605H49.9697H50.9688V10.9551V11.9648H51.9678H52.9668V12.9639V13.9629H51.9678H50.9688V15.9609V17.959H53.9766H56.9736V14.9619V11.9648H54.9756H52.9668V10.9551V9.95605H54.9756H56.9736V10.9551V11.9648H57.9727H58.9717V14.9619V17.959H57.9727H56.9736V18.9688V19.9678H53.9766H50.9688V21.9658V23.9639H49.9697H48.9707V16.96ZM62.9785 10.9551V9.95605H65.9863H68.9834V10.9551V11.9648H65.9863H62.9785V12.9639V13.9629H65.9863H68.9834V12.9639V11.9648H69.9824H70.9814V13.9629V15.9609H66.9854H62.9785V16.96V17.959H61.9795H60.9805V14.9619V11.9648H61.9795H62.9785V10.9551ZM62.9785 17.959H66.9854H70.9814V18.958V19.957H66.9854H62.9785V18.958V17.959ZM85 11.9648V3.96191H89.0068H93.0029V4.96094V5.95996H90.0059H86.998V7.95801V9.9668H90.0059H93.0029V7.95801V5.95996H94.002H95.001V7.95801V9.9668H94.002H93.0029V10.9658V11.9648H90.0059H86.998V15.9609V19.957H85.999H85V11.9648ZM99.0078 10.9551V9.95605H102.016H105.013V10.9551V11.9648H102.016H99.0078V14.9619V17.959H102.016H105.013V14.9619V11.9648H106.012H107.011V14.9619V17.959H106.012H105.013V18.958V19.957H102.016H99.0078V18.958V17.959H98.0088H97.0098V14.9619V11.9648H98.0088H99.0078V10.9551ZM111.018 10.9551V9.95605H114.025H117.022V10.9551V11.9648H114.025H111.018V10.9551ZM117.022 17.959V16.96V15.9609H114.025H111.018V14.9619V13.9629H110.019H109.02V12.9639V11.9648H110.019H111.018V12.9639V13.9629H114.025H117.022V14.9619V15.9609H118.021H119.021V16.96V17.959H118.021H117.022ZM117.022 17.959V18.958V19.957H113.026H109.02V18.958V17.959H113.026H117.022ZM123.027 6.95898V3.96191H124.026H125.025V6.95898V9.9668H127.034H129.032V10.9658V11.9648H127.034H125.025V14.9619V17.959H124.026H123.027V14.9619V11.9648H122.028H121.029V10.9658V9.9668H122.028H123.027V6.95898ZM125.025 17.959H127.034H129.032V18.958V19.957H127.034H125.025V18.958V17.959ZM135.037 10.9551V9.95605H138.045H141.042V10.9551V11.9648H138.045H135.037V12.9639V13.9629H138.045H141.042V12.9639V11.9648H142.041H143.04V13.9629V15.9609H139.044H135.037V16.96V17.959H134.038H133.039V14.9619V11.9648H134.038H135.037V10.9551ZM135.037 17.959H139.044H143.04V18.958V19.957H139.044H135.037V18.958V17.959ZM145.049 14.9619V9.95605H146.048H147.047V10.9551V11.9648H148.046H149.045V12.9639V13.9629H148.046H147.047V16.96V19.957H146.048H145.049V14.9619ZM153.052 11.9648H151.054H149.045V10.9551V9.95605H151.054H153.052V10.9551V11.9648ZM153.052 11.9648H154.051H155.05V12.9639V13.9629H154.051H153.052V12.9639V11.9648Z" fill="#555552"/>
<defs>
<filter id="filter0_d_4675_28898" x="4" y="8" width="162" height="39" filterUnits="userSpaceOnUse" color-interpolation-filters="sRGB">
<feFlood flood-opacity="0" result="BackgroundImageFix"/>
<feColorMatrix in="SourceAlpha" type="matrix" values="0 0 0 0 0 0 0 0 0 0 0 0 0 0 0 0 0 0 127 0" result="hardAlpha"/>
<feOffset dy="4"/>
<feGaussianBlur stdDeviation="2"/>
<feComposite in2="hardAlpha" operator="out"/>
<feColorMatrix type="matrix" values="0 0 0 0 0 0 0 0 0 0 0 0 0 0 0 0 0 0 0.05 0"/>
<feBlend mode="normal" in2="BackgroundImageFix" result="effect1_dropShadow_4675_28898"/>
<feBlend mode="normal" in="SourceGraphic" in2="effect1_dropShadow_4675_28898" result="shape"/>
</filter>
</defs>
</svg>
