<svg width="114" height="45" viewBox="0 0 114 45" fill="none" xmlns="http://www.w3.org/2000/svg">
<g filter="url(#filter0_f_4638_27742)">
<g filter="url(#filter1_d_4638_27742)">
<rect x="4.16016" y="7.03906" width="105.586" height="29" transform="rotate(0.314157 4.16016 7.03906)" fill="white"/>
</g>
<path d="M8.99805 5V4.00098H12.0059H15.0029V5V5.99902H12.0059H8.99805V5ZM8.99805 17.998H12.0059H15.0029V15.001V12.0039H12.0059H8.99805V11.0049V10.0059H7.99902H7V7.99707V5.99902H7.99902H8.99805V7.99707V10.0059H12.0059H15.0029V11.0049V12.0039H16.002H17.001V15.001V17.998H16.002H15.0029V18.9971V19.9961H12.0059H8.99805V18.9971V17.998ZM8.99805 17.998H7.99902H7V16.999V16H7.99902H8.99805V16.999V17.998ZM15.0029 5.99902H16.002H17.001V6.99805V7.99707H16.002H15.0029V6.99805V5.99902ZM19.0098 12.0039V4.00098H20.0088H21.0078V7.99707V12.0039H22.0068H23.0059V13.0029V14.002H22.0068H21.0078V16.999V19.9961H20.0088H19.0098V12.0039ZM27.0127 12.0039H25.0146H23.0059V11.0049V10.0059H25.0146H27.0127V11.0049V12.0039ZM27.0127 12.0039H28.0117H29.0107V16V19.9961H28.0117H27.0127V16V12.0039ZM33.0176 10.9941V9.99512H36.0254H39.0225V10.9941V12.0039H36.0254H33.0176V15.001V17.998H36.0254H39.0225V15.001V12.0039H40.0215H41.0205V15.001V17.998H40.0215H39.0225V18.9971V19.9961H36.0254H33.0176V18.9971V17.998H32.0186H31.0195V15.001V12.0039H32.0186H33.0176V10.9941ZM43.0293 14.002V9.99512H44.0283H45.0273V14.002V17.998H44.0283H43.0293V14.002ZM51.0322 17.998V18.9971V19.9961H50.0332H49.0342V18.9971V17.998H48.0352H47.0254V18.9971V19.9961H46.0264H45.0273V18.9971V17.998H46.0264H47.0254V15.001V12.0039H48.0352H49.0342V15.001V17.998H50.0332H51.0322ZM51.0322 17.998V14.002V9.99512H52.0312H53.0303V14.002V17.998H52.0312H51.0322ZM69.0469 5V4.00098H72.0547H75.0518V5V5.99902H72.0547H69.0469V7.99707V10.0059H72.0547H75.0518V7.99707V5.99902H76.0508H77.0498V13.0029V19.9961H76.0508H75.0518V16V12.0039H72.0547H69.0469V16V19.9961H68.0479H67.0488V13.0029V5.99902H68.0479H69.0469V5ZM81.0566 5V4.00098H83.0547H85.0635V11.0049V17.998H84.0537H83.0547V12.0039V5.99902H82.0557H81.0566V5ZM85.0635 17.998H87.0615H89.0596V18.9971V19.9961H87.0615H85.0635V18.9971V17.998ZM93.0664 5V4.00098H95.0645H97.0732V11.0049V17.998H96.0635H95.0645V12.0039V5.99902H94.0654H93.0664V5ZM97.0732 17.998H99.0713H101.069V18.9971V19.9961H99.0713H97.0732V18.9971V17.998Z" fill="black"/>
</g>
<defs>
<filter id="filter0_f_4638_27742" x="0" y="0" width="113.746" height="40.6172" filterUnits="userSpaceOnUse" color-interpolation-filters="sRGB">
<feFlood flood-opacity="0" result="BackgroundImageFix"/>
<feBlend mode="normal" in="SourceGraphic" in2="BackgroundImageFix" result="shape"/>
<feGaussianBlur stdDeviation="2" result="effect1_foregroundBlur_4638_27742"/>
</filter>
<filter id="filter1_d_4638_27742" x="0" y="7.03906" width="113.746" height="37.5781" filterUnits="userSpaceOnUse" color-interpolation-filters="sRGB">
<feFlood flood-opacity="0" result="BackgroundImageFix"/>
<feColorMatrix in="SourceAlpha" type="matrix" values="0 0 0 0 0 0 0 0 0 0 0 0 0 0 0 0 0 0 127 0" result="hardAlpha"/>
<feOffset dy="4"/>
<feGaussianBlur stdDeviation="2"/>
<feComposite in2="hardAlpha" operator="out"/>
<feColorMatrix type="matrix" values="0 0 0 0 0 0 0 0 0 0 0 0 0 0 0 0 0 0 0.05 0"/>
<feBlend mode="normal" in2="BackgroundImageFix" result="effect1_dropShadow_4638_27742"/>
<feBlend mode="normal" in="SourceGraphic" in2="effect1_dropShadow_4638_27742" result="shape"/>
</filter>
</defs>
</svg>
