<svg width="114" height="45" viewBox="0 0 114 45" fill="none" xmlns="http://www.w3.org/2000/svg">
<g filter="url(#filter0_d_4675_28901)">
<rect x="4.16016" y="7" width="105.586" height="29" transform="rotate(0.314157 4.16016 7)" fill="white"/>
</g>
<path d="M8.99805 4.96094V3.96191H12.0059H15.0029V4.96094V5.95996H12.0059H8.99805V4.96094ZM8.99805 17.959H12.0059H15.0029V14.9619V11.9648H12.0059H8.99805V10.9658V9.9668H7.99902H7V7.95801V5.95996H7.99902H8.99805V7.95801V9.9668H12.0059H15.0029V10.9658V11.9648H16.002H17.001V14.9619V17.959H16.002H15.0029V18.958V19.957H12.0059H8.99805V18.958V17.959ZM8.99805 17.959H7.99902H7V16.96V15.9609H7.99902H8.99805V16.96V17.959ZM15.0029 5.95996H16.002H17.001V6.95898V7.95801H16.002H15.0029V6.95898V5.95996ZM19.0098 11.9648V3.96191H20.0088H21.0078V7.95801V11.9648H22.0068H23.0059V12.9639V13.9629H22.0068H21.0078V16.96V19.957H20.0088H19.0098V11.9648ZM27.0127 11.9648H25.0146H23.0059V10.9658V9.9668H25.0146H27.0127V10.9658V11.9648ZM27.0127 11.9648H28.0117H29.0107V15.9609V19.957H28.0117H27.0127V15.9609V11.9648ZM33.0176 10.9551V9.95605H36.0254H39.0225V10.9551V11.9648H36.0254H33.0176V14.9619V17.959H36.0254H39.0225V14.9619V11.9648H40.0215H41.0205V14.9619V17.959H40.0215H39.0225V18.958V19.957H36.0254H33.0176V18.958V17.959H32.0186H31.0195V14.9619V11.9648H32.0186H33.0176V10.9551ZM43.0293 13.9629V9.95605H44.0283H45.0273V13.9629V17.959H44.0283H43.0293V13.9629ZM51.0322 17.959V18.958V19.957H50.0332H49.0342V18.958V17.959H48.0352H47.0254V18.958V19.957H46.0264H45.0273V18.958V17.959H46.0264H47.0254V14.9619V11.9648H48.0352H49.0342V14.9619V17.959H50.0332H51.0322ZM51.0322 17.959V13.9629V9.95605H52.0312H53.0303V13.9629V17.959H52.0312H51.0322ZM69.0469 4.96094V3.96191H72.0547H75.0518V4.96094V5.95996H72.0547H69.0469V7.95801V9.9668H72.0547H75.0518V7.95801V5.95996H76.0508H77.0498V12.9639V19.957H76.0508H75.0518V15.9609V11.9648H72.0547H69.0469V15.9609V19.957H68.0479H67.0488V12.9639V5.95996H68.0479H69.0469V4.96094ZM81.0566 4.96094V3.96191H83.0547H85.0635V10.9658V17.959H84.0537H83.0547V11.9648V5.95996H82.0557H81.0566V4.96094ZM85.0635 17.959H87.0615H89.0596V18.958V19.957H87.0615H85.0635V18.958V17.959ZM93.0664 4.96094V3.96191H95.0645H97.0732V10.9658V17.959H96.0635H95.0645V11.9648V5.95996H94.0654H93.0664V4.96094ZM97.0732 17.959H99.0713H101.069V18.958V19.957H99.0713H97.0732V18.958V17.959Z" fill="#555552"/>
<defs>
<filter id="filter0_d_4675_28901" x="0" y="7" width="113.746" height="37.5781" filterUnits="userSpaceOnUse" color-interpolation-filters="sRGB">
<feFlood flood-opacity="0" result="BackgroundImageFix"/>
<feColorMatrix in="SourceAlpha" type="matrix" values="0 0 0 0 0 0 0 0 0 0 0 0 0 0 0 0 0 0 127 0" result="hardAlpha"/>
<feOffset dy="4"/>
<feGaussianBlur stdDeviation="2"/>
<feComposite in2="hardAlpha" operator="out"/>
<feColorMatrix type="matrix" values="0 0 0 0 0 0 0 0 0 0 0 0 0 0 0 0 0 0 0.05 0"/>
<feBlend mode="normal" in2="BackgroundImageFix" result="effect1_dropShadow_4675_28901"/>
<feBlend mode="normal" in="SourceGraphic" in2="effect1_dropShadow_4675_28901" result="shape"/>
</filter>
</defs>
</svg>
